<?xml version="1.0" standalone="no"?>
<!DOCTYPE svg PUBLIC "-//W3C//DTD SVG 1.1//EN" "http://www.w3.org/Graphics/SVG/1.1/DTD/svg11.dtd">
<svg version="1.1" xmlns="http://www.w3.org/2000/svg" viewBox="0 0 145.75634765625 161.97998046875" width="145.75634765625" height="161.97998046875"><!-- svg-source:excalidraw --><metadata></metadata><defs><style class="style-fonts">
      </style></defs><g transform="translate(54.314208984375 133.12860107421875) rotate(0 -21.9898681640625 -47.8961181640625)" stroke="none"><path fill="#1e1e1e" d="M 0,5.27 Q 0,5.27 -3.59,8.83 -7.18,12.38 -13.52,11.15 -19.86,9.92 -24.52,7.47 -29.18,5.02 -33.37,1.56 -37.57,-1.89 -40.62,-5.60 -43.68,-9.30 -45.82,-13.07 -47.95,-16.84 -49.85,-20.84 -51.74,-24.84 -53.30,-29.50 -54.86,-34.16 -55.63,-38.80 -56.40,-43.43 -56.61,-48.03 -56.82,-52.62 -56.15,-57.33 -55.47,-62.04 -53.87,-67.48 -52.27,-72.93 -49.78,-77.93 -47.28,-82.93 -43.92,-87.72 -40.56,-92.51 -37.52,-96.25 -34.49,-99.99 -31.10,-103.08 -27.72,-106.16 -27.19,-106.52 -26.66,-106.88 -25.30,-107.53 -23.95,-108.19 -22.48,-108.49 -21.01,-108.80 -19.50,-108.75 -18.00,-108.70 -16.55,-108.29 -15.10,-107.88 -13.80,-107.14 -12.49,-106.39 -11.40,-105.36 -10.31,-104.32 -9.50,-103.06 -8.69,-101.79 -8.20,-100.37 -7.72,-98.94 -7.59,-97.44 -7.46,-95.95 -7.69,-94.46 -7.92,-92.97 -8.50,-91.59 -9.08,-90.20 -9.98,-88.99 -10.88,-87.78 -12.04,-86.83 -13.19,-85.87 -12.73,-90.43 -12.27,-95.00 -13.47,-99.08 -14.67,-103.16 -13.90,-102.39 -13.13,-101.61 -12.35,-101.28 -11.56,-100.95 -10.93,-100.39 -10.29,-99.82 -9.87,-99.08 -9.45,-98.35 -9.28,-97.51 -9.12,-96.68 -9.23,-95.84 -9.34,-94.99 -9.71,-94.23 -10.09,-93.47 -10.69,-92.86 -11.28,-92.26 -12.04,-91.88 -12.80,-91.50 -13.64,-91.38 -14.49,-91.26 -15.32,-91.41 -16.16,-91.57 -16.90,-91.98 -17.64,-92.40 -18.21,-93.03 -18.78,-93.66 -19.12,-94.44 -19.46,-95.22 -19.53,-96.06 -19.61,-96.91 -19.41,-97.74 -19.21,-98.56 -18.75,-99.28 -18.30,-100.00 -17.64,-100.53 -16.98,-101.07 -16.18,-101.37 -15.39,-101.66 -14.54,-101.69 -13.69,-101.72 -12.87,-101.47 -12.06,-101.23 -11.37,-100.73 -10.67,-100.24 -10.17,-99.55 -9.68,-98.87 -9.42,-98.06 -9.17,-97.24 -9.19,-96.39 -9.21,-95.54 -9.50,-94.75 -9.78,-93.95 -10.31,-93.28 -10.84,-92.62 -11.56,-92.15 -12.27,-91.69 -13.09,-91.48 -13.92,-91.28 -14.77,-91.34 -15.61,-91.41 -15.61,-91.40 -15.61,-91.40 -16.00,-89.46 -16.38,-87.51 -21.15,-88.34 -25.92,-89.17 -27.15,-93.34 -28.38,-97.50 -27.52,-102.19 -26.66,-106.88 -25.31,-107.53 -23.95,-108.18 -22.48,-108.49 -21.01,-108.80 -19.50,-108.75 -18.00,-108.70 -16.55,-108.29 -15.11,-107.88 -13.80,-107.14 -12.49,-106.39 -11.40,-105.36 -10.31,-104.32 -9.50,-103.06 -8.69,-101.79 -8.20,-100.37 -7.72,-98.94 -7.59,-97.45 -7.46,-95.95 -7.69,-94.46 -7.92,-92.97 -8.50,-91.59 -9.08,-90.20 -9.98,-88.99 -10.87,-87.78 -12.03,-86.83 -13.19,-85.87 -14.80,-84.33 -16.41,-82.79 -19.10,-79.43 -21.80,-76.06 -24.18,-72.46 -26.57,-68.86 -28.59,-63.99 -30.61,-59.11 -31.18,-54.30 -31.75,-49.48 -31.13,-44.75 -30.51,-40.02 -28.76,-35.47 -27.00,-30.92 -24.88,-27.19 -22.76,-23.45 -19.37,-19.95 -15.99,-16.46 -11.55,-14.42 -7.12,-12.38 -3.56,-8.83 0,-5.27 0.63,-5.19 1.26,-5.12 1.85,-4.89 2.45,-4.67 2.97,-4.31 3.49,-3.94 3.92,-3.47 4.34,-2.99 4.63,-2.43 4.93,-1.87 5.08,-1.25 5.23,-0.63 5.23,0.00 5.23,0.63 5.08,1.25 4.93,1.87 4.63,2.43 4.34,2.99 3.91,3.47 3.49,3.94 2.97,4.31 2.45,4.67 1.85,4.89 1.26,5.12 0.63,5.19 -0.00,5.27 -0.00,5.27 L 0,5.27 Z"></path></g><g transform="translate(43.653564453125 35.4658203125) rotate(0 8.9892578125 0.44305419921875)" stroke="none"><path fill="#1e1e1e" d="M 0.20,-5.24 Q 0.20,-5.24 4.60,-5.43 9.00,-5.62 13.69,-4.95 18.37,-4.28 19.20,-4.08 20.03,-3.88 20.74,-3.42 21.46,-2.97 22.00,-2.31 22.53,-1.65 22.83,-0.85 23.13,-0.06 23.15,0.78 23.18,1.63 22.94,2.44 22.69,3.26 22.20,3.95 21.71,4.64 21.02,5.14 20.33,5.64 19.52,5.90 18.71,6.15 17.86,6.13 17.01,6.11 16.21,5.82 15.41,5.53 14.74,5.00 14.08,4.47 13.62,3.76 13.16,3.05 12.95,2.22 12.74,1.40 12.80,0.55 12.87,-0.29 13.20,-1.07 13.53,-1.85 14.10,-2.49 14.66,-3.12 15.40,-3.54 16.14,-3.97 16.97,-4.13 17.81,-4.29 18.65,-4.18 19.49,-4.07 20.26,-3.70 21.02,-3.32 21.62,-2.73 22.23,-2.13 22.61,-1.37 22.99,-0.61 23.11,0.22 23.23,1.07 23.07,1.90 22.91,2.74 22.50,3.48 22.08,4.22 21.45,4.79 20.82,5.36 20.04,5.70 19.26,6.04 18.42,6.11 17.57,6.18 17.57,6.18 17.57,6.18 13.06,6.24 8.54,6.30 4.17,5.77 -0.20,5.24 -0.82,5.14 -1.45,5.04 -2.03,4.80 -2.61,4.55 -3.12,4.17 -3.63,3.79 -4.03,3.30 -4.43,2.81 -4.70,2.24 -4.98,1.67 -5.10,1.05 -5.23,0.43 -5.21,-0.20 -5.18,-0.83 -5.01,-1.44 -4.83,-2.05 -4.52,-2.60 -4.20,-3.14 -3.76,-3.60 -3.32,-4.06 -2.79,-4.40 -2.25,-4.74 -1.65,-4.94 -1.05,-5.14 -0.42,-5.19 0.20,-5.24 0.20,-5.24 L 0.20,-5.24 Z"></path></g><g transform="translate(32.918701171875 39.60076904296875) rotate(0 24.77587890625 -9.6317138671875)" stroke="none"><path fill="#1e1e1e" d="M -2.34,-1.21 Q -2.34,-1.21 -1.41,-4.27 -0.48,-7.32 0.97,-9.37 2.43,-11.42 4.84,-13.27 7.25,-15.12 9.55,-16.31 11.85,-17.49 13.94,-18.42 16.03,-19.34 19.75,-20.67 23.48,-21.99 27.18,-22.48 30.89,-22.96 34.54,-22.64 38.18,-22.32 41.80,-21.76 45.41,-21.20 46.21,-21.09 47.01,-20.98 47.31,-20.89 47.61,-20.79 47.88,-20.62 48.15,-20.45 48.37,-20.23 48.59,-20.00 48.75,-19.73 48.91,-19.45 49.00,-19.15 49.09,-18.85 49.11,-18.53 49.12,-18.22 49.06,-17.90 49.00,-17.59 48.87,-17.31 48.73,-17.02 48.53,-16.77 48.34,-16.53 48.08,-16.33 47.83,-16.14 47.54,-16.01 47.25,-15.89 46.94,-15.83 46.63,-15.78 46.31,-15.80 46.00,-15.83 45.22,-16.30 44.44,-16.78 44.23,-17.15 44.03,-17.52 43.95,-17.94 43.87,-18.35 43.94,-18.78 44.00,-19.20 44.19,-19.57 44.38,-19.95 44.68,-20.25 44.99,-20.55 45.37,-20.74 45.75,-20.92 46.17,-20.98 46.59,-21.03 47.01,-20.95 47.43,-20.86 47.79,-20.65 48.16,-20.44 48.44,-20.12 48.73,-19.80 48.89,-19.41 49.05,-19.02 49.09,-18.60 49.12,-18.17 49.01,-17.76 48.91,-17.35 48.67,-16.99 48.44,-16.64 48.11,-16.37 47.78,-16.11 47.38,-15.97 46.98,-15.82 46.55,-15.81 46.13,-15.81 45.72,-15.93 45.32,-16.06 44.97,-16.31 44.63,-16.56 44.38,-16.91 44.14,-17.26 44.02,-17.66 43.90,-18.07 43.91,-18.50 43.93,-18.92 44.08,-19.32 44.22,-19.72 44.49,-20.05 44.76,-20.37 45.12,-20.60 45.48,-20.83 45.90,-20.93 46.31,-21.02 46.73,-20.99 47.16,-20.95 47.54,-20.78 47.93,-20.61 47.47,-20.79 47.00,-20.98 47.31,-20.89 47.61,-20.79 47.88,-20.62 48.15,-20.45 48.37,-20.23 48.59,-20.00 48.75,-19.73 48.91,-19.45 49.00,-19.15 49.09,-18.85 49.11,-18.53 49.12,-18.22 49.06,-17.90 49.00,-17.59 48.87,-17.31 48.73,-17.02 48.53,-16.77 48.34,-16.53 48.08,-16.33 47.83,-16.14 47.54,-16.01 47.25,-15.89 46.94,-15.84 46.63,-15.78 46.31,-15.80 46.00,-15.83 44.93,-14.41 43.87,-12.98 40.64,-13.49 37.42,-14.00 34.25,-14.33 31.08,-14.66 28.49,-14.36 25.89,-14.05 22.56,-12.96 19.24,-11.87 15.44,-10.30 11.64,-8.74 8.94,-6.29 6.24,-3.84 4.29,-1.31 2.34,1.21 2.17,1.47 1.99,1.74 1.75,1.95 1.51,2.16 1.23,2.31 0.95,2.46 0.64,2.54 0.33,2.62 0.01,2.62 -0.30,2.62 -0.61,2.55 -0.92,2.47 -1.20,2.33 -1.48,2.18 -1.72,1.97 -1.96,1.76 -2.15,1.50 -2.33,1.24 -2.44,0.94 -2.56,0.64 -2.60,0.33 -2.64,0.01 -2.60,-0.29 -2.57,-0.61 -2.46,-0.91 -2.34,-1.21 -2.34,-1.21 L -2.34,-1.21 Z"></path></g><g transform="translate(26.12109375 54.794921875) rotate(0 45.1685791015625 28.813140869140625)" stroke="none"><path fill="#1e1e1e" d="M -1.98,-1.71 Q -1.98,-1.71 -0.78,-4.89 0.40,-8.06 3.31,-11.07 6.22,-14.08 8.90,-16.61 11.58,-19.14 14.35,-21.49 17.13,-23.83 19.69,-25.59 22.25,-27.36 24.90,-28.83 27.54,-30.30 29.67,-31.26 31.80,-32.22 34.28,-33.41 36.75,-34.60 39.83,-35.50 42.90,-36.40 45.72,-36.53 48.55,-36.67 51.31,-36.36 54.07,-36.06 57.39,-35.15 60.70,-34.23 62.76,-33.04 64.81,-31.86 67.30,-30.79 69.79,-29.71 71.63,-28.41 73.47,-27.10 74.88,-25.49 76.29,-23.87 77.70,-22.22 79.10,-20.57 80.79,-18.20 82.47,-15.83 83.78,-13.70 85.08,-11.56 86.54,-8.84 88.01,-6.12 88.96,-4.22 89.92,-2.31 90.72,0.16 91.53,2.65 92.29,5.37 93.05,8.08 93.68,10.52 94.31,12.97 94.80,15.35 95.28,17.73 95.69,19.95 96.10,22.17 96.34,24.94 96.59,27.71 96.66,30.84 96.73,33.97 96.40,36.36 96.08,38.75 95.51,41.05 94.94,43.36 93.98,45.50 93.03,47.65 90.46,49.84 87.90,52.02 86.34,53.63 84.79,55.25 83.74,57.11 82.70,58.98 81.70,61.09 80.71,63.20 79.26,65.43 77.80,67.65 75.73,70.25 73.66,72.84 70.78,75.28 67.90,77.72 65.45,79.80 63.00,81.87 60.63,83.52 58.26,85.16 55.98,86.87 53.70,88.59 51.83,89.48 49.96,90.38 49.56,90.52 49.16,90.66 48.74,90.67 48.31,90.67 47.91,90.54 47.50,90.42 47.16,90.16 46.82,89.91 46.57,89.56 46.33,89.22 46.21,88.81 46.09,88.40 46.10,87.98 46.12,87.55 46.27,87.16 46.42,86.76 46.69,86.43 46.96,86.10 47.32,85.88 47.68,85.65 48.09,85.55 48.51,85.46 48.93,85.49 49.35,85.53 49.74,85.71 50.13,85.88 50.44,86.16 50.76,86.45 50.96,86.82 51.17,87.20 51.24,87.61 51.32,88.03 51.26,88.45 51.20,88.87 51.00,89.25 50.81,89.63 50.51,89.93 50.20,90.23 49.82,90.41 49.44,90.59 49.01,90.65 48.59,90.70 48.18,90.62 47.76,90.53 47.39,90.32 47.02,90.10 46.74,89.79 46.46,89.47 46.30,89.07 46.14,88.68 46.11,88.26 46.08,87.83 46.18,87.42 46.29,87.01 46.52,86.66 46.76,86.30 47.09,86.04 47.42,85.77 47.42,85.78 47.42,85.78 49.58,83.88 51.73,81.98 54.20,79.97 56.67,77.97 58.90,76.26 61.12,74.56 63.72,72.37 66.31,70.18 68.14,68.21 69.97,66.25 71.52,63.92 73.07,61.60 74.24,59.62 75.42,57.64 76.62,55.44 77.82,53.24 79.51,50.64 81.19,48.04 81.55,45.31 81.91,42.59 82.49,40.40 83.07,38.22 83.47,36.08 83.87,33.93 83.82,31.26 83.76,28.58 83.41,25.49 83.06,22.41 82.67,20.25 82.29,18.09 81.56,15.09 80.84,12.10 79.97,9.02 79.10,5.93 78.32,3.90 77.54,1.87 76.05,-0.93 74.55,-3.74 73.44,-5.68 72.34,-7.61 71.05,-9.53 69.77,-11.45 68.32,-13.20 66.86,-14.96 64.98,-16.71 63.10,-18.47 60.92,-19.49 58.74,-20.51 56.39,-21.80 54.04,-23.09 51.23,-23.51 48.42,-23.94 46.17,-23.88 43.91,-23.83 41.70,-22.86 39.50,-21.90 36.47,-20.60 33.44,-19.31 31.21,-18.16 28.98,-17.01 26.71,-15.63 24.44,-14.26 21.71,-12.39 18.99,-10.53 16.27,-8.42 13.54,-6.30 10.73,-3.93 7.92,-1.55 4.95,0.08 1.98,1.71 1.75,1.93 1.51,2.14 1.23,2.29 0.95,2.44 0.65,2.52 0.34,2.60 0.02,2.60 -0.28,2.61 -0.59,2.53 -0.90,2.46 -1.18,2.32 -1.46,2.17 -1.70,1.97 -1.94,1.76 -2.12,1.50 -2.31,1.24 -2.42,0.95 -2.54,0.65 -2.58,0.34 -2.62,0.03 -2.59,-0.28 -2.55,-0.59 -2.44,-0.89 -2.33,-1.19 -2.16,-1.45 -1.98,-1.71 -1.98,-1.71 L -1.98,-1.71 Z"></path></g><g transform="translate(68.578125 139.23248291015625) rotate(0 7.9306640625 -1.509552001953125)" stroke="none"><path fill="#1e1e1e" d="M 0.33,-1.27 Q 0.33,-1.27 1.02,-1.42 1.71,-1.57 1.96,-1.51 2.20,-1.45 2.43,-1.36 2.65,-1.27 2.85,-1.13 3.05,-0.99 3.21,-0.81 3.37,-0.62 3.48,-0.40 3.59,-0.19 3.64,0.04 3.70,0.28 3.69,0.52 3.69,0.77 3.63,1.00 3.56,1.24 3.45,1.45 3.33,1.66 3.17,1.84 3.00,2.02 2.80,2.16 2.60,2.29 2.37,2.38 2.14,2.46 1.90,2.48 1.65,2.51 1.41,2.48 1.17,2.44 -0.08,2.89 -1.33,3.34 -1.60,3.34 -1.86,3.33 -2.12,3.27 -2.38,3.20 -2.61,3.08 -2.84,2.95 -3.04,2.77 -3.24,2.60 -3.38,2.38 -3.53,2.16 -3.62,1.91 -3.71,1.66 -3.74,1.40 -3.77,1.13 -3.74,0.87 -3.70,0.61 -3.61,0.36 -3.51,0.11 -3.36,-0.09 -3.21,-0.31 -3.01,-0.48 -2.81,-0.66 -2.57,-0.78 -2.33,-0.90 -2.08,-0.96 -1.82,-1.02 -0.29,-1.64 1.23,-2.25 3.02,-2.94 4.82,-3.62 6.01,-3.95 7.21,-4.29 9.16,-4.77 11.12,-5.24 13.09,-5.78 15.07,-6.32 15.01,-5.63 14.95,-4.95 15.11,-4.96 15.26,-4.98 15.42,-4.96 15.58,-4.95 15.72,-4.89 15.87,-4.83 16.00,-4.74 16.13,-4.65 16.24,-4.53 16.34,-4.42 16.42,-4.28 16.49,-4.14 16.53,-3.98 16.57,-3.83 16.57,-3.67 16.57,-3.51 16.53,-3.36 16.49,-3.20 16.42,-3.06 16.34,-2.92 16.24,-2.81 16.13,-2.69 16.00,-2.60 15.87,-2.51 15.72,-2.45 15.58,-2.40 15.21,-2.41 14.84,-2.43 14.65,-2.53 14.47,-2.63 14.32,-2.78 14.17,-2.94 14.08,-3.13 14.00,-3.32 13.97,-3.53 13.95,-3.74 14.00,-3.95 14.04,-4.16 14.15,-4.34 14.26,-4.52 14.42,-4.66 14.59,-4.80 14.78,-4.88 14.98,-4.95 15.19,-4.96 15.41,-4.98 15.61,-4.92 15.82,-4.86 15.99,-4.74 16.17,-4.62 16.30,-4.45 16.42,-4.28 16.49,-4.08 16.56,-3.88 16.56,-3.67 16.56,-3.46 16.49,-3.25 16.42,-3.05 16.29,-2.88 16.16,-2.72 15.99,-2.60 15.81,-2.48 15.61,-2.42 15.40,-2.36 15.19,-2.38 14.98,-2.39 14.78,-2.47 14.58,-2.55 14.42,-2.68 14.26,-2.82 14.15,-3.00 14.04,-3.19 14.00,-3.39 13.95,-3.60 13.97,-3.81 14.00,-4.02 14.09,-4.22 14.18,-4.41 14.32,-4.56 14.47,-4.72 14.66,-4.82 14.85,-4.92 15.05,-4.95 15.26,-4.98 15.11,-4.96 14.95,-4.95 15.10,-4.96 15.26,-4.98 15.42,-4.96 15.58,-4.95 15.72,-4.89 15.87,-4.83 16.00,-4.74 16.13,-4.65 16.24,-4.53 16.34,-4.42 16.42,-4.28 16.49,-4.14 16.53,-3.98 16.57,-3.83 16.57,-3.67 16.57,-3.51 16.53,-3.36 16.49,-3.20 16.42,-3.06 16.34,-2.92 16.24,-2.81 16.13,-2.69 16.00,-2.60 15.87,-2.51 15.72,-2.45 15.58,-2.40 15.93,-1.87 16.29,-1.34 14.34,-0.81 12.38,-0.28 11.34,-0.01 10.29,0.24 8.42,0.71 6.55,1.17 5.47,1.52 4.40,1.86 2.73,2.33 1.06,2.80 -0.13,3.07 -1.33,3.34 -1.60,3.34 -1.86,3.33 -2.12,3.27 -2.38,3.20 -2.61,3.08 -2.84,2.95 -3.04,2.77 -3.24,2.60 -3.38,2.38 -3.53,2.16 -3.62,1.91 -3.71,1.66 -3.74,1.40 -3.77,1.13 -3.74,0.87 -3.70,0.61 -3.61,0.36 -3.51,0.11 -3.36,-0.09 -3.21,-0.31 -3.01,-0.48 -2.81,-0.66 -2.57,-0.78 -2.33,-0.90 -2.08,-0.96 -1.82,-1.02 -1.10,-1.05 -0.39,-1.08 0.90,-1.27 2.20,-1.45 2.43,-1.36 2.65,-1.27 2.85,-1.13 3.05,-0.99 3.21,-0.81 3.37,-0.62 3.48,-0.40 3.59,-0.19 3.64,0.04 3.70,0.28 3.69,0.52 3.69,0.77 3.63,1.00 3.56,1.24 3.45,1.45 3.33,1.66 3.17,1.84 3.00,2.02 2.80,2.16 2.60,2.29 2.37,2.38 2.14,2.46 1.90,2.48 1.65,2.51 1.41,2.48 1.17,2.44 0.94,2.33 0.71,2.22 0.18,1.74 -0.33,1.27 -0.48,1.22 -0.63,1.16 -0.76,1.06 -0.89,0.97 -0.99,0.85 -1.10,0.73 -1.17,0.59 -1.24,0.44 -1.28,0.29 -1.31,0.13 -1.31,-0.02 -1.31,-0.18 -1.27,-0.33 -1.22,-0.48 -1.15,-0.62 -1.07,-0.76 -0.96,-0.88 -0.86,-1.00 -0.72,-1.09 -0.59,-1.18 -0.44,-1.23 -0.29,-1.28 -0.13,-1.30 0.02,-1.32 0.17,-1.30 0.33,-1.27 0.33,-1.27 L 0.33,-1.27 Z"></path></g><g transform="translate(78.347412109375 139.19964599609375) rotate(0 -12.852294921875 1.03375244140625)" stroke="none"><path fill="#1e1e1e" d="M 0.34,1.26 Q 0.34,1.26 -1.82,2.09 -4.00,2.92 -6.23,3.34 -8.46,3.76 -10.75,3.94 -13.04,4.12 -15.28,4.04 -17.52,3.95 -19.35,3.86 -21.18,3.76 -21.72,2.40 -22.25,1.04 -22.41,1.01 -22.56,0.99 -22.71,0.92 -22.85,0.86 -22.98,0.76 -23.10,0.66 -23.20,0.54 -23.30,0.41 -23.36,0.27 -23.43,0.12 -23.45,-0.02 -23.48,-0.18 -23.47,-0.34 -23.46,-0.50 -23.41,-0.65 -23.37,-0.80 -23.29,-0.93 -23.20,-1.07 -23.09,-1.18 -22.98,-1.29 -22.84,-1.37 -22.71,-1.46 -22.56,-1.50 -22.41,-1.55 -22.25,-1.56 -22.09,-1.57 -22.41,-1.51 -22.72,-1.45 -22.52,-1.51 -22.31,-1.56 -22.10,-1.55 -21.89,-1.54 -21.69,-1.46 -21.49,-1.38 -21.33,-1.24 -21.17,-1.11 -21.06,-0.92 -20.95,-0.74 -20.90,-0.53 -20.86,-0.33 -20.88,-0.12 -20.91,0.09 -21.00,0.28 -21.08,0.47 -21.23,0.63 -21.38,0.78 -21.57,0.88 -21.75,0.98 -21.96,1.01 -22.17,1.05 -22.38,1.01 -22.59,0.98 -22.78,0.88 -22.97,0.78 -23.11,0.62 -23.26,0.47 -23.35,0.28 -23.44,0.08 -23.46,-0.12 -23.48,-0.33 -23.44,-0.54 -23.39,-0.75 -23.28,-0.93 -23.17,-1.11 -23.01,-1.25 -22.85,-1.38 -22.65,-1.46 -22.45,-1.54 -22.24,-1.55 -22.03,-1.56 -21.82,-1.51 -21.62,-1.45 -21.44,-1.33 -21.27,-1.21 -21.14,-1.04 -21.01,-0.87 -20.94,-0.67 -20.87,-0.47 -20.87,-0.26 -20.88,-0.04 -20.94,0.15 -21.01,0.35 -21.14,0.52 -21.27,0.69 -21.76,0.87 -22.25,1.04 -22.41,1.01 -22.56,0.99 -22.71,0.92 -22.85,0.86 -22.98,0.76 -23.10,0.66 -23.20,0.54 -23.30,0.41 -23.36,0.27 -23.43,0.12 -23.45,-0.02 -23.48,-0.18 -23.47,-0.34 -23.46,-0.50 -23.42,-0.65 -23.37,-0.80 -23.29,-0.93 -23.20,-1.07 -23.09,-1.18 -22.98,-1.29 -22.84,-1.37 -22.71,-1.46 -22.56,-1.50 -22.41,-1.55 -22.25,-1.56 -22.09,-1.57 -21.49,-1.25 -20.90,-0.93 -19.04,-0.80 -17.18,-0.66 -15.16,-0.43 -13.14,-0.21 -11.09,-0.13 -9.03,-0.06 -6.98,-0.28 -4.92,-0.51 -2.63,-0.88 -0.34,-1.26 -0.18,-1.29 -0.02,-1.31 0.12,-1.29 0.28,-1.28 0.43,-1.22 0.58,-1.17 0.71,-1.08 0.84,-1.00 0.95,-0.88 1.06,-0.77 1.14,-0.63 1.21,-0.49 1.25,-0.34 1.29,-0.18 1.30,-0.02 1.30,0.12 1.27,0.28 1.23,0.43 1.16,0.57 1.09,0.72 0.99,0.84 0.89,0.96 0.76,1.05 0.63,1.14 0.48,1.20 0.34,1.26 0.34,1.26 L 0.34,1.26 Z"></path></g><g transform="translate(79.870361328125 146.74749755859375) rotate(0 19.482666015625 -24.62896728515625)" stroke="none"><path fill="#1e1e1e" d="M -0.56,-1.20 Q -0.56,-1.20 0.89,-2.14 2.35,-3.08 3.93,-3.97 5.51,-4.87 6.73,-5.80 7.95,-6.73 9.52,-7.82 11.09,-8.91 13.01,-10.09 14.93,-11.26 16.65,-12.40 18.38,-13.54 20.43,-15.09 22.48,-16.64 24.11,-18.03 25.75,-19.43 27.03,-21.02 28.32,-22.61 29.31,-24.31 30.30,-26.01 30.97,-27.46 31.64,-28.91 32.26,-30.51 32.89,-32.12 33.35,-33.54 33.81,-34.96 34.26,-36.54 34.72,-38.11 35.28,-40.05 35.84,-41.98 36.25,-43.48 36.65,-44.98 36.83,-46.09 37.01,-47.20 37.07,-47.35 37.13,-47.49 37.22,-47.63 37.30,-47.76 37.42,-47.86 37.54,-47.97 37.68,-48.04 37.82,-48.12 37.97,-48.15 38.13,-48.19 38.29,-48.19 38.44,-48.19 38.60,-48.16 38.75,-48.12 38.89,-48.05 39.03,-47.97 39.15,-47.87 39.27,-47.77 39.36,-47.64 39.45,-47.51 39.51,-47.36 39.57,-47.21 39.59,-47.05 39.60,-46.90 39.59,-46.74 39.57,-46.58 39.47,-46.36 39.37,-46.14 39.22,-45.99 39.07,-45.83 38.88,-45.74 38.70,-45.64 38.49,-45.61 38.28,-45.58 38.07,-45.61 37.86,-45.65 37.67,-45.75 37.48,-45.85 37.34,-46.01 37.20,-46.17 37.11,-46.36 37.02,-46.55 37.00,-46.77 36.98,-46.98 37.03,-47.18 37.08,-47.39 37.19,-47.57 37.30,-47.75 37.46,-47.89 37.63,-48.02 37.83,-48.10 38.03,-48.18 38.24,-48.19 38.45,-48.19 38.65,-48.13 38.86,-48.08 39.03,-47.95 39.21,-47.83 39.33,-47.66 39.46,-47.49 39.52,-47.29 39.59,-47.09 39.59,-46.87 39.58,-46.66 39.51,-46.46 39.44,-46.26 39.31,-46.09 39.18,-45.93 39.01,-45.81 38.83,-45.69 38.62,-45.64 38.42,-45.58 38.21,-45.60 37.99,-45.61 37.80,-45.69 37.60,-45.77 37.44,-45.91 37.28,-46.05 37.17,-46.24 37.07,-46.42 37.02,-46.63 36.98,-46.84 37.01,-47.05 37.03,-47.26 37.02,-47.23 37.01,-47.20 37.07,-47.35 37.13,-47.49 37.22,-47.63 37.30,-47.76 37.42,-47.86 37.54,-47.97 37.68,-48.04 37.82,-48.12 37.97,-48.15 38.13,-48.19 38.29,-48.19 38.44,-48.19 38.60,-48.16 38.75,-48.12 38.89,-48.05 39.03,-47.97 39.15,-47.87 39.27,-47.77 39.36,-47.64 39.45,-47.51 39.51,-47.36 39.57,-47.21 39.59,-47.05 39.60,-46.90 39.59,-46.74 39.57,-46.58 39.66,-45.41 39.75,-44.24 39.44,-42.74 39.12,-41.25 38.78,-39.20 38.44,-37.15 38.05,-35.43 37.65,-33.72 37.15,-32.19 36.66,-30.66 35.99,-28.93 35.33,-27.19 34.57,-25.57 33.80,-23.95 32.64,-21.99 31.47,-20.03 29.93,-18.19 28.40,-16.34 26.66,-14.87 24.93,-13.39 22.77,-11.77 20.61,-10.14 18.81,-8.97 17.02,-7.81 15.17,-6.71 13.32,-5.61 11.77,-4.58 10.22,-3.56 8.76,-2.58 7.30,-1.60 5.58,-0.71 3.87,0.17 2.21,0.68 0.56,1.20 0.40,1.25 0.25,1.30 0.09,1.31 -0.06,1.32 -0.22,1.29 -0.37,1.27 -0.52,1.20 -0.67,1.14 -0.79,1.04 -0.92,0.95 -1.02,0.82 -1.12,0.70 -1.19,0.55 -1.26,0.41 -1.29,0.25 -1.32,0.09 -1.31,-0.06 -1.30,-0.22 -1.26,-0.37 -1.21,-0.52 -1.13,-0.66 -1.05,-0.80 -0.94,-0.92 -0.83,-1.03 -0.69,-1.11 -0.56,-1.20 -0.56,-1.20 L -0.56,-1.20 Z"></path></g><g transform="translate(106.800537109375 123.67730712890625) rotate(0 3.86328125 -18.0491943359375)" stroke="none"><path fill="#1e1e1e" d="M 0.98,0.87 Q 0.98,0.87 -0.41,2.47 -1.80,4.07 -2.89,5.03 -3.98,5.99 -4.92,6.80 -5.86,7.60 -6.17,8.06 -6.47,8.51 -6.63,8.61 -6.79,8.70 -6.97,8.76 -7.15,8.81 -7.34,8.82 -7.52,8.83 -7.71,8.80 -7.89,8.76 -8.06,8.69 -8.23,8.61 -8.38,8.49 -8.52,8.38 -8.64,8.23 -8.75,8.08 -8.83,7.91 -8.90,7.74 -8.94,7.56 -8.97,7.37 -8.96,7.19 -8.95,7.00 -8.89,6.82 -8.83,6.64 -8.73,6.48 -8.64,6.32 -8.50,6.19 -8.37,6.06 -6.06,4.01 -3.75,1.96 -2.02,-0.14 -0.30,-2.25 1.86,-5.71 4.02,-9.16 5.84,-12.21 7.65,-15.25 9.05,-17.73 10.46,-20.21 11.28,-22.56 12.11,-24.91 12.58,-27.12 13.05,-29.34 13.31,-31.24 13.57,-33.14 13.67,-34.82 13.77,-36.50 13.83,-38.15 13.88,-39.79 14.27,-41.94 14.66,-44.09 14.70,-44.30 14.74,-44.51 14.85,-44.69 14.96,-44.87 15.12,-45.01 15.28,-45.15 15.47,-45.23 15.67,-45.31 15.88,-45.33 16.09,-45.34 16.30,-45.29 16.50,-45.23 16.68,-45.12 16.86,-45.00 16.99,-44.83 17.12,-44.66 17.19,-44.46 17.26,-44.26 17.26,-44.05 17.27,-43.84 17.20,-43.64 17.14,-43.43 17.01,-43.26 16.88,-43.09 16.71,-42.97 16.53,-42.85 16.33,-42.79 16.13,-42.73 15.91,-42.74 15.70,-42.75 15.50,-42.83 15.30,-42.90 15.14,-43.04 14.98,-43.17 14.87,-43.35 14.75,-43.53 14.71,-43.74 14.66,-43.95 14.68,-44.16 14.70,-44.37 14.79,-44.57 14.87,-44.76 15.02,-44.92 15.16,-45.07 15.35,-45.17 15.53,-45.27 15.74,-45.31 15.95,-45.35 16.16,-45.32 16.37,-45.28 16.56,-45.19 16.75,-45.09 16.90,-44.94 17.05,-44.78 17.14,-44.59 17.23,-44.40 17.25,-44.19 17.28,-43.98 17.28,-43.98 17.28,-43.98 17.47,-41.82 17.67,-39.67 17.61,-37.97 17.56,-36.28 17.45,-34.45 17.35,-32.62 17.07,-30.58 16.78,-28.53 16.24,-26.08 15.70,-23.62 14.74,-20.98 13.78,-18.33 12.34,-15.81 10.90,-13.30 9.03,-10.22 7.16,-7.14 4.78,-3.56 2.40,0.01 0.48,2.24 -1.44,4.48 -3.96,6.49 -6.47,8.51 -6.63,8.61 -6.79,8.70 -6.97,8.76 -7.15,8.81 -7.34,8.82 -7.52,8.83 -7.71,8.80 -7.89,8.76 -8.06,8.69 -8.23,8.61 -8.38,8.49 -8.52,8.38 -8.64,8.23 -8.75,8.08 -8.83,7.91 -8.90,7.74 -8.94,7.56 -8.97,7.37 -8.96,7.19 -8.95,7.00 -8.89,6.82 -8.83,6.64 -8.73,6.48 -8.64,6.32 -8.50,6.19 -8.37,6.06 -8.07,5.63 -7.77,5.21 -6.79,4.52 -5.80,3.82 -4.81,3.04 -3.83,2.26 -2.40,0.69 -0.98,-0.87 -0.86,-0.97 -0.74,-1.08 -0.60,-1.15 -0.46,-1.22 -0.30,-1.26 -0.15,-1.30 0.00,-1.30 0.16,-1.30 0.31,-1.26 0.46,-1.22 0.60,-1.15 0.74,-1.07 0.86,-0.97 0.98,-0.86 1.07,-0.73 1.16,-0.60 1.21,-0.45 1.27,-0.31 1.29,-0.15 1.31,0.00 1.29,0.15 1.27,0.31 1.21,0.46 1.16,0.61 1.07,0.74 0.98,0.87 0.98,0.87 L 0.98,0.87 Z"></path></g><g transform="translate(112.446533203125 119.93621826171875) rotate(0 7.57763671875 -40.430267333984375)" stroke="none"><path fill="#1e1e1e" d="M -0.76,-1.10 Q -0.76,-1.10 0.49,-2.33 1.74,-3.56 3.39,-6.18 5.05,-8.80 6.52,-11.93 8.00,-15.07 9.15,-19.41 10.29,-23.75 11.02,-27.77 11.74,-31.79 12.05,-35.95 12.37,-40.11 12.11,-43.67 11.85,-47.24 11.52,-49.87 11.18,-52.49 10.86,-54.77 10.55,-57.06 10.20,-58.66 9.84,-60.26 9.34,-61.63 8.84,-63.00 8.40,-64.00 7.97,-65.01 7.50,-66.06 7.03,-67.10 6.28,-68.15 5.53,-69.20 4.62,-70.32 3.70,-71.44 2.75,-72.73 1.80,-74.02 1.24,-75.28 0.68,-76.53 -0.12,-78.77 -0.94,-81.00 -1.02,-81.20 -1.09,-81.40 -1.10,-81.61 -1.11,-81.82 -1.06,-82.03 -1.00,-82.23 -0.88,-82.41 -0.76,-82.58 -0.59,-82.71 -0.42,-82.84 -0.22,-82.91 -0.02,-82.97 0.19,-82.97 0.40,-82.97 0.60,-82.90 0.80,-82.83 0.97,-82.70 1.14,-82.57 1.26,-82.40 1.38,-82.22 1.43,-82.02 1.49,-81.81 1.47,-81.60 1.46,-81.39 1.38,-81.19 1.30,-80.99 1.17,-80.83 1.03,-80.67 0.84,-80.56 0.66,-80.45 0.45,-80.41 0.25,-80.36 0.04,-80.39 -0.17,-80.41 -0.36,-80.50 -0.55,-80.59 -0.70,-80.74 -0.86,-80.89 -0.96,-81.07 -1.06,-81.26 -1.09,-81.47 -1.12,-81.68 -1.09,-81.89 -1.05,-82.10 -0.95,-82.29 -0.85,-82.48 -0.70,-82.62 -0.54,-82.77 -0.35,-82.85 -0.15,-82.94 0.05,-82.97 0.26,-82.99 0.47,-82.94 0.67,-82.89 0.85,-82.78 1.04,-82.67 1.17,-82.51 1.31,-82.35 1.31,-82.35 1.31,-82.35 2.76,-80.45 4.22,-78.55 4.88,-77.67 5.54,-76.80 6.44,-75.60 7.34,-74.40 8.36,-73.13 9.39,-71.86 10.34,-70.45 11.30,-69.03 11.79,-67.95 12.27,-66.87 12.76,-65.72 13.25,-64.58 13.84,-62.92 14.42,-61.27 14.81,-59.48 15.19,-57.70 15.51,-55.39 15.83,-53.09 16.18,-50.32 16.53,-47.56 16.78,-43.66 17.04,-39.75 16.69,-35.34 16.35,-30.93 15.53,-26.72 14.70,-22.51 13.32,-17.84 11.93,-13.16 10.22,-9.78 8.50,-6.40 6.26,-3.42 4.01,-0.43 2.39,0.33 0.76,1.10 0.62,1.17 0.47,1.25 0.32,1.29 0.16,1.33 0.00,1.33 -0.15,1.33 -0.31,1.29 -0.47,1.25 -0.61,1.18 -0.76,1.10 -0.88,1.00 -1.00,0.89 -1.09,0.75 -1.18,0.62 -1.24,0.47 -1.30,0.32 -1.32,0.16 -1.34,0.00 -1.32,-0.15 -1.30,-0.31 -1.24,-0.47 -1.19,-0.62 -1.09,-0.75 -1.00,-0.88 -0.88,-0.99 -0.76,-1.10 -0.76,-1.10 L -0.76,-1.10 Z"></path></g><g transform="translate(123.850341796875 70.74383544921875) rotate(0 -8.339111328125 -15.55511474609375)" stroke="none"><path fill="#1e1e1e" d="M -1.27,0.31 Q -1.27,0.31 -2.39,-3.60 -3.51,-7.51 -5.34,-11.58 -7.17,-15.65 -9.10,-18.68 -11.03,-21.72 -12.75,-23.86 -14.46,-26.00 -16.07,-28.13 -17.68,-30.26 -17.79,-30.45 -17.90,-30.63 -17.94,-30.84 -17.99,-31.05 -17.96,-31.26 -17.94,-31.47 -17.84,-31.66 -17.75,-31.85 -17.61,-32.01 -17.46,-32.16 -17.27,-32.26 -17.08,-32.35 -16.87,-32.39 -16.66,-32.42 -16.45,-32.38 -16.24,-32.35 -16.06,-32.24 -15.87,-32.14 -15.72,-31.99 -15.58,-31.83 -15.49,-31.64 -15.40,-31.44 -15.38,-31.23 -15.36,-31.02 -15.41,-30.81 -15.46,-30.61 -15.57,-30.43 -15.68,-30.25 -15.84,-30.11 -16.01,-29.97 -16.20,-29.90 -16.40,-29.82 -16.62,-29.81 -16.83,-29.80 -17.03,-29.86 -17.24,-29.92 -17.41,-30.04 -17.59,-30.16 -17.71,-30.33 -17.84,-30.50 -17.91,-30.70 -17.97,-30.91 -17.97,-31.12 -17.97,-31.33 -17.90,-31.53 -17.83,-31.73 -17.70,-31.90 -17.57,-32.07 -17.39,-32.18 -17.21,-32.30 -17.01,-32.36 -16.80,-32.41 -16.59,-32.40 -16.38,-32.39 -16.18,-32.30 -15.99,-32.22 -15.82,-32.08 -15.66,-31.95 -15.66,-31.95 -15.66,-31.95 -13.84,-29.97 -12.01,-28.00 -10.14,-25.73 -8.27,-23.47 -6.22,-20.23 -4.17,-16.98 -2.27,-12.64 -0.36,-8.29 0.45,-4.30 1.27,-0.31 1.29,-0.15 1.31,0.00 1.29,0.15 1.27,0.31 1.21,0.46 1.16,0.61 1.07,0.74 0.98,0.87 0.86,0.97 0.74,1.08 0.60,1.15 0.46,1.22 0.31,1.26 0.15,1.30 -0.00,1.30 -0.15,1.30 -0.31,1.26 -0.46,1.22 -0.60,1.15 -0.74,1.08 -0.86,0.97 -0.98,0.87 -1.07,0.73 -1.16,0.60 -1.21,0.46 -1.27,0.31 -1.27,0.31 L -1.27,0.31 Z"></path></g><g transform="translate(30.54150390625 35.8924560546875) rotate(0 18.628173828125 -8.975372314453125)" stroke="none"><path fill="#1e1e1e" d="M -1.22,-0.52 Q -1.22,-0.52 -0.59,-2.51 0.02,-4.50 2.96,-6.75 5.91,-9.00 9.86,-11.04 13.80,-13.07 18.84,-14.98 23.88,-16.90 27.37,-17.73 30.87,-18.56 34.06,-18.61 37.25,-18.66 37.46,-18.65 37.67,-18.63 37.87,-18.55 38.07,-18.46 38.22,-18.32 38.38,-18.18 38.49,-18.00 38.59,-17.81 38.63,-17.60 38.68,-17.40 38.65,-17.19 38.62,-16.98 38.53,-16.78 38.43,-16.59 38.28,-16.44 38.13,-16.29 37.94,-16.20 37.75,-16.10 37.54,-16.07 37.33,-16.04 37.12,-16.08 36.92,-16.12 36.73,-16.22 36.54,-16.33 36.40,-16.49 36.26,-16.64 36.17,-16.84 36.09,-17.03 36.07,-17.24 36.05,-17.46 36.10,-17.66 36.15,-17.87 36.27,-18.05 36.38,-18.23 36.55,-18.36 36.71,-18.50 36.91,-18.57 37.11,-18.64 37.32,-18.65 37.53,-18.66 37.74,-18.60 37.94,-18.53 38.11,-18.41 38.29,-18.29 38.41,-18.12 38.54,-17.94 38.60,-17.74 38.66,-17.54 38.66,-17.33 38.65,-17.11 38.58,-16.91 38.51,-16.71 38.38,-16.55 38.24,-16.38 38.07,-16.27 37.89,-16.15 37.68,-16.10 37.47,-16.05 37.48,-16.05 37.48,-16.05 34.61,-15.49 31.74,-14.93 28.49,-14.13 25.23,-13.33 20.39,-11.50 15.54,-9.67 11.80,-7.78 8.07,-5.89 5.60,-4.37 3.13,-2.85 2.17,-1.16 1.22,0.52 1.13,0.66 1.05,0.80 0.94,0.91 0.83,1.03 0.70,1.11 0.56,1.20 0.41,1.25 0.26,1.30 0.10,1.31 -0.05,1.32 -0.21,1.30 -0.37,1.27 -0.52,1.21 -0.66,1.14 -0.79,1.05 -0.92,0.95 -1.02,0.83 -1.12,0.70 -1.19,0.56 -1.26,0.41 -1.29,0.25 -1.32,0.10 -1.31,-0.05 -1.31,-0.21 -1.26,-0.37 -1.22,-0.52 -1.22,-0.52 L -1.22,-0.52 Z"></path></g><g transform="translate(32.138671875 27.29443359375) rotate(0 27.9146728515625 -8.647216796875)" stroke="none"><path fill="#1e1e1e" d="M -0.78,-1.05 Q -0.78,-1.05 1.60,-3.00 3.99,-4.95 8.06,-7.60 12.12,-10.26 16.16,-12.35 20.20,-14.44 24.99,-15.84 29.78,-17.25 33.99,-17.59 38.19,-17.94 42.24,-17.36 46.28,-16.79 48.98,-15.85 51.68,-14.92 53.95,-14.09 56.22,-13.26 56.41,-13.16 56.60,-13.07 56.75,-12.91 56.90,-12.76 56.99,-12.57 57.08,-12.38 57.11,-12.17 57.14,-11.96 57.09,-11.75 57.05,-11.54 56.95,-11.36 56.84,-11.17 56.68,-11.03 56.52,-10.89 56.33,-10.81 56.13,-10.73 55.92,-10.71 55.71,-10.70 55.50,-10.75 55.29,-10.80 55.12,-10.92 54.94,-11.04 54.81,-11.20 54.68,-11.37 54.60,-11.57 54.53,-11.77 54.53,-11.98 54.52,-12.20 54.59,-12.40 54.65,-12.60 54.78,-12.77 54.90,-12.94 55.08,-13.07 55.25,-13.19 55.46,-13.25 55.66,-13.31 55.87,-13.30 56.08,-13.29 56.28,-13.22 56.48,-13.14 56.65,-13.01 56.81,-12.87 56.92,-12.69 57.04,-12.51 57.08,-12.31 57.13,-12.10 57.12,-11.89 57.10,-11.68 57.01,-11.48 56.92,-11.29 56.78,-11.13 56.64,-10.97 56.45,-10.87 56.27,-10.77 56.06,-10.73 55.85,-10.69 55.64,-10.72 55.43,-10.75 55.43,-10.75 55.43,-10.75 53.14,-11.33 50.85,-11.90 48.28,-12.43 45.71,-12.95 42.09,-13.50 38.46,-14.05 34.63,-13.79 30.79,-13.54 26.31,-12.37 21.82,-11.21 17.91,-9.25 13.99,-7.30 9.95,-4.83 5.91,-2.36 3.34,-0.65 0.78,1.05 0.64,1.13 0.50,1.21 0.35,1.25 0.20,1.29 0.04,1.30 -0.11,1.30 -0.27,1.27 -0.42,1.24 -0.56,1.17 -0.71,1.10 -0.83,1.00 -0.95,0.90 -1.04,0.77 -1.14,0.64 -1.20,0.50 -1.26,0.35 -1.28,0.19 -1.31,0.04 -1.29,-0.11 -1.28,-0.27 -1.23,-0.42 -1.18,-0.57 -1.09,-0.70 -1.01,-0.83 -0.89,-0.94 -0.78,-1.05 -0.78,-1.05 L -0.78,-1.05 Z"></path></g><g transform="translate(66.275146484375 17.21966552734375) rotate(0 19.74267578125 6.0875244140625)" stroke="none"><path fill="#1e1e1e" d="M 0.17,-1.30 Q 0.17,-1.30 4.68,-0.83 9.18,-0.36 15.11,0.92 21.04,2.22 25.73,4.10 30.43,5.98 33.06,7.35 35.70,8.72 37.89,9.86 40.09,11.00 40.26,11.13 40.43,11.26 40.55,11.43 40.67,11.61 40.73,11.81 40.78,12.02 40.77,12.23 40.77,12.44 40.69,12.64 40.61,12.84 40.47,13.00 40.34,13.16 40.16,13.28 39.98,13.39 39.77,13.43 39.56,13.48 39.35,13.46 39.14,13.44 38.95,13.35 38.75,13.26 38.60,13.12 38.44,12.97 38.34,12.79 38.24,12.60 38.20,12.39 38.17,12.18 38.20,11.97 38.23,11.76 38.33,11.57 38.43,11.38 38.58,11.24 38.73,11.09 38.93,11.00 39.12,10.91 39.33,10.88 39.54,10.86 39.75,10.90 39.96,10.95 40.14,11.05 40.32,11.16 40.46,11.32 40.60,11.48 40.68,11.68 40.76,11.88 40.77,12.09 40.79,12.30 40.73,12.51 40.68,12.71 40.56,12.89 40.44,13.07 40.27,13.20 40.10,13.33 39.90,13.40 39.70,13.46 39.49,13.47 39.28,13.47 39.08,13.40 38.87,13.34 38.87,13.34 38.87,13.34 36.71,12.21 34.55,11.09 31.95,9.93 29.35,8.77 24.84,7.09 20.32,5.42 14.54,4.12 8.75,2.81 4.28,2.06 -0.17,1.30 -0.33,1.26 -0.48,1.22 -0.62,1.14 -0.76,1.07 -0.87,0.96 -0.99,0.85 -1.08,0.72 -1.17,0.59 -1.22,0.44 -1.28,0.29 -1.29,0.13 -1.31,-0.01 -1.29,-0.17 -1.27,-0.33 -1.21,-0.48 -1.15,-0.62 -1.06,-0.75 -0.97,-0.88 -0.85,-0.98 -0.73,-1.09 -0.58,-1.16 -0.44,-1.23 -0.29,-1.27 -0.13,-1.30 0.01,-1.30 0.17,-1.30 0.17,-1.30 L 0.17,-1.30 Z"></path></g><g transform="translate(82.173095703125 15.4476318359375) rotate(0 16.0841064453125 14.390167236328125)" stroke="none"><path fill="#1e1e1e" d="M 0.64,-1.14 Q 0.64,-1.14 5.21,1.25 9.79,3.64 14.40,7.43 19.01,11.22 22.67,14.78 26.32,18.33 28.47,20.90 30.63,23.47 32.47,26.03 34.31,28.60 34.40,28.79 34.49,28.98 34.52,29.19 34.55,29.40 34.51,29.61 34.47,29.82 34.37,30.00 34.27,30.19 34.11,30.33 33.95,30.47 33.75,30.56 33.56,30.64 33.35,30.66 33.14,30.68 32.93,30.62 32.72,30.57 32.54,30.46 32.36,30.34 32.23,30.18 32.10,30.01 32.02,29.81 31.95,29.62 31.94,29.40 31.94,29.19 32.00,28.99 32.06,28.78 32.19,28.61 32.31,28.44 32.48,28.31 32.65,28.19 32.86,28.13 33.06,28.06 33.27,28.07 33.49,28.08 33.69,28.15 33.88,28.22 34.05,28.35 34.22,28.49 34.33,28.67 34.45,28.85 34.50,29.05 34.55,29.26 34.53,29.47 34.52,29.68 34.43,29.88 34.35,30.07 34.21,30.23 34.06,30.39 33.88,30.49 33.69,30.60 33.49,30.64 33.28,30.68 33.07,30.65 32.86,30.62 32.67,30.53 32.48,30.43 32.32,30.28 32.17,30.13 32.17,30.13 32.17,30.13 30.31,27.75 28.44,25.37 26.29,22.97 24.14,20.58 20.57,17.12 17.00,13.66 12.62,10.04 8.23,6.42 3.79,3.78 -0.64,1.14 -0.76,1.05 -0.89,0.95 -0.99,0.83 -1.10,0.71 -1.16,0.57 -1.23,0.43 -1.27,0.27 -1.30,0.12 -1.30,-0.03 -1.29,-0.19 -1.25,-0.34 -1.21,-0.49 -1.13,-0.63 -1.06,-0.77 -0.95,-0.89 -0.84,-1.00 -0.71,-1.09 -0.57,-1.17 -0.42,-1.23 -0.28,-1.28 -0.12,-1.29 0.03,-1.31 0.19,-1.28 0.34,-1.26 0.49,-1.20 0.64,-1.14 0.64,-1.14 L 0.64,-1.14 Z"></path></g><g transform="translate(70.658447265625 36.4503173828125) rotate(0 11.496337890625 -0.78759765625)" stroke="none"><path fill="#1e1e1e" d="M -0.14,-1.31 Q -0.14,-1.31 3.99,-1.83 8.12,-2.36 12.12,-2.14 16.12,-1.93 19.61,-1.60 23.10,-1.27 23.31,-1.22 23.51,-1.17 23.69,-1.05 23.87,-0.94 24.00,-0.77 24.13,-0.60 24.21,-0.40 24.28,-0.20 24.28,0.00 24.29,0.21 24.22,0.41 24.16,0.62 24.04,0.79 23.91,0.96 23.74,1.08 23.57,1.21 23.36,1.27 23.16,1.33 22.95,1.32 22.73,1.32 22.54,1.24 22.34,1.17 22.17,1.03 22.01,0.90 21.89,0.72 21.78,0.54 21.73,0.33 21.68,0.13 21.70,-0.07 21.71,-0.28 21.80,-0.48 21.88,-0.67 22.03,-0.83 22.17,-0.99 22.36,-1.09 22.54,-1.20 22.75,-1.24 22.96,-1.28 23.17,-1.25 23.38,-1.22 23.57,-1.12 23.76,-1.03 23.91,-0.87 24.06,-0.72 24.15,-0.53 24.24,-0.34 24.27,-0.13 24.30,0.07 24.26,0.28 24.22,0.49 24.11,0.67 24.01,0.86 23.85,1.00 23.69,1.14 23.49,1.22 23.30,1.30 23.09,1.32 22.87,1.34 22.88,1.34 22.88,1.34 19.43,1.07 15.99,0.80 12.22,0.66 8.44,0.51 4.29,0.91 0.14,1.31 -0.01,1.31 -0.17,1.31 -0.32,1.27 -0.48,1.23 -0.62,1.15 -0.76,1.08 -0.88,0.97 -1.00,0.86 -1.08,0.73 -1.17,0.60 -1.23,0.45 -1.28,0.30 -1.30,0.14 -1.32,-0.01 -1.30,-0.17 -1.28,-0.32 -1.22,-0.47 -1.16,-0.62 -1.07,-0.75 -0.98,-0.88 -0.86,-0.99 -0.74,-1.09 -0.59,-1.17 -0.45,-1.24 -0.30,-1.28 -0.14,-1.31 -0.14,-1.31 L -0.14,-1.31 Z"></path></g><g transform="translate(54.296875 129.9271240234375) rotate(0 -3.733154296875 -46.140380859375)" stroke="none"><path fill="#e03131" d="M -0.92,0.93 Q -0.92,0.93 -1.82,0.64 -2.72,0.36 -4.71,-0.55 -6.70,-1.48 -8.49,-2.41 -10.29,-3.34 -11.89,-4.61 -13.50,-5.87 -15.33,-8.13 -17.17,-10.39 -19.14,-13.17 -21.12,-15.95 -22.73,-18.45 -24.35,-20.95 -25.78,-23.81 -27.22,-26.67 -28.13,-29.27 -29.05,-31.86 -29.64,-34.97 -30.23,-38.07 -30.54,-40.78 -30.86,-43.50 -31.01,-45.59 -31.17,-47.68 -30.97,-50.26 -30.77,-52.83 -30.28,-55.27 -29.79,-57.72 -29.19,-60.03 -28.60,-62.33 -27.88,-64.55 -27.16,-66.77 -26.26,-68.82 -25.35,-70.88 -23.98,-73.11 -22.60,-75.34 -21.37,-76.91 -20.15,-78.48 -18.68,-79.82 -17.21,-81.16 -15.51,-82.44 -13.82,-83.72 -11.99,-84.85 -10.15,-85.98 -7.64,-87.16 -5.13,-88.34 -2.66,-89.43 -0.18,-90.53 2.30,-91.73 4.79,-92.94 6.90,-93.61 9.00,-94.28 10.87,-94.43 12.74,-94.59 14.42,-94.52 16.10,-94.46 17.30,-94.34 18.51,-94.22 18.87,-92.98 19.22,-91.74 19.38,-91.71 19.53,-91.67 19.67,-91.60 19.81,-91.53 19.93,-91.43 20.05,-91.33 20.15,-91.20 20.24,-91.07 20.30,-90.92 20.36,-90.78 20.38,-90.62 20.40,-90.46 20.38,-90.31 20.37,-90.15 20.31,-90.00 20.26,-89.85 20.17,-89.72 20.09,-89.59 19.97,-89.48 19.85,-89.37 19.71,-89.30 19.58,-89.22 19.42,-89.18 19.27,-89.14 19.11,-89.13 18.95,-89.13 18.95,-89.13 18.95,-89.13 18.74,-89.19 18.54,-89.24 18.36,-89.36 18.19,-89.48 18.06,-89.65 17.93,-89.82 17.86,-90.02 17.79,-90.22 17.79,-90.43 17.79,-90.65 17.86,-90.85 17.93,-91.05 18.05,-91.22 18.18,-91.39 18.36,-91.51 18.53,-91.63 18.74,-91.69 18.94,-91.74 19.15,-91.73 19.37,-91.72 19.56,-91.64 19.76,-91.57 19.92,-91.43 20.09,-91.29 20.20,-91.11 20.31,-90.93 20.35,-90.72 20.40,-90.51 20.38,-90.30 20.35,-90.09 20.27,-89.90 20.18,-89.70 20.03,-89.55 19.89,-89.39 19.70,-89.29 19.51,-89.19 19.30,-89.16 19.09,-89.12 18.88,-89.16 18.67,-89.19 18.48,-89.29 18.30,-89.39 18.15,-89.54 18.00,-89.70 17.91,-89.89 17.82,-90.08 17.80,-90.29 17.78,-90.51 17.82,-90.71 17.87,-90.92 17.98,-91.10 18.08,-91.29 18.25,-91.42 18.41,-91.56 18.60,-91.64 18.80,-91.72 19.01,-91.73 19.22,-91.74 19.38,-91.71 19.53,-91.67 19.67,-91.60 19.81,-91.53 19.93,-91.43 20.05,-91.33 20.15,-91.20 20.24,-91.07 20.30,-90.92 20.36,-90.78 20.38,-90.62 20.40,-90.46 20.38,-90.31 20.37,-90.15 20.31,-90.00 20.26,-89.85 20.17,-89.72 20.09,-89.59 19.97,-89.48 19.85,-89.37 19.71,-89.30 19.58,-89.22 19.42,-89.18 19.27,-89.14 19.11,-89.13 18.95,-89.13 17.38,-88.80 15.82,-88.47 14.47,-88.54 13.12,-88.62 11.93,-88.58 10.74,-88.54 9.07,-88.04 7.39,-87.53 4.81,-86.29 2.24,-85.04 -0.17,-83.97 -2.59,-82.90 -4.80,-81.87 -7.02,-80.84 -8.61,-79.87 -10.20,-78.91 -11.70,-77.79 -13.20,-76.67 -14.31,-75.70 -15.43,-74.73 -16.47,-73.43 -17.50,-72.14 -18.69,-70.29 -19.87,-68.44 -20.67,-66.67 -21.46,-64.90 -22.14,-62.86 -22.82,-60.82 -23.39,-58.67 -23.96,-56.52 -24.41,-54.42 -24.86,-52.32 -25.05,-50.20 -25.25,-48.08 -25.12,-46.09 -25.00,-44.11 -24.76,-41.58 -24.52,-39.05 -24.11,-36.35 -23.71,-33.65 -22.97,-31.38 -22.24,-29.10 -21.01,-26.50 -19.77,-23.89 -18.22,-21.48 -16.66,-19.07 -14.81,-16.38 -12.96,-13.69 -11.56,-11.82 -10.15,-9.95 -8.92,-8.91 -7.68,-7.87 -6.06,-6.85 -4.44,-5.82 -3.08,-5.04 -1.73,-4.26 -0.70,-3.50 0.33,-2.74 0.62,-1.83 0.92,-0.93 1.02,-0.80 1.12,-0.68 1.18,-0.53 1.25,-0.39 1.28,-0.23 1.31,-0.08 1.30,0.07 1.29,0.23 1.24,0.38 1.19,0.53 1.11,0.67 1.03,0.80 0.92,0.91 0.81,1.03 0.67,1.11 0.54,1.19 0.39,1.24 0.24,1.29 0.08,1.30 -0.07,1.31 -0.23,1.28 -0.38,1.25 -0.53,1.19 -0.67,1.12 -0.80,1.02 -0.92,0.93 -0.92,0.93 L -0.92,0.93 Z"></path></g><g transform="translate(32.381103515625 78.30633544921875) rotate(0 11.329345703125 -14.931640625)" stroke="none"><path fill="#e03131" d="M -1.27,-0.35 Q -1.27,-0.35 -0.08,-4.90 1.09,-9.45 3.38,-13.69 5.68,-17.93 9.62,-21.49 13.57,-25.05 15.96,-26.72 18.35,-28.38 20.12,-29.65 21.89,-30.92 22.08,-31.02 22.27,-31.11 22.48,-31.14 22.69,-31.17 22.90,-31.13 23.11,-31.09 23.29,-30.99 23.48,-30.88 23.62,-30.72 23.76,-30.57 23.84,-30.37 23.93,-30.18 23.95,-29.96 23.96,-29.75 23.91,-29.55 23.86,-29.34 23.75,-29.16 23.63,-28.98 23.47,-28.85 23.30,-28.72 23.10,-28.64 22.90,-28.57 22.69,-28.56 22.48,-28.56 22.27,-28.62 22.07,-28.68 21.90,-28.81 21.73,-28.93 21.60,-29.10 21.48,-29.27 21.41,-29.48 21.35,-29.68 21.36,-29.89 21.36,-30.11 21.44,-30.30 21.51,-30.50 21.64,-30.67 21.78,-30.84 21.96,-30.95 22.13,-31.06 22.34,-31.12 22.55,-31.17 22.76,-31.15 22.97,-31.13 23.17,-31.05 23.36,-30.97 23.52,-30.82 23.68,-30.68 23.78,-30.50 23.89,-30.31 23.93,-30.10 23.97,-29.89 23.94,-29.68 23.91,-29.47 23.81,-29.28 23.72,-29.09 23.57,-28.94 23.42,-28.79 23.42,-28.79 23.42,-28.79 21.67,-27.53 19.91,-26.27 17.74,-24.55 15.56,-22.83 11.93,-19.63 8.31,-16.42 6.15,-12.52 3.98,-8.62 2.63,-4.13 1.27,0.35 1.21,0.50 1.14,0.65 1.05,0.78 0.96,0.90 0.83,1.00 0.71,1.11 0.57,1.18 0.42,1.25 0.27,1.28 0.11,1.31 -0.04,1.31 -0.20,1.30 -0.35,1.26 -0.50,1.21 -0.64,1.14 -0.78,1.06 -0.90,0.95 -1.01,0.84 -1.10,0.70 -1.18,0.57 -1.24,0.42 -1.29,0.27 -1.30,0.11 -1.32,-0.04 -1.29,-0.20 -1.27,-0.35 -1.27,-0.35 L -1.27,-0.35 Z"></path></g><g transform="translate(29.966552734375 71.9398193359375) rotate(0 27.2646484375 -19.542388916015625)" stroke="none"><path fill="#e03131" d="M -1.15,-0.63 Q -1.15,-0.63 0.80,-4.42 2.76,-8.22 8.74,-14.43 14.73,-20.64 23.31,-25.93 31.88,-31.23 37.81,-33.93 43.74,-36.63 46.77,-37.49 49.81,-38.35 51.89,-39.01 53.98,-39.68 54.19,-39.71 54.40,-39.74 54.61,-39.70 54.82,-39.66 55.00,-39.56 55.19,-39.45 55.33,-39.30 55.48,-39.14 55.56,-38.95 55.65,-38.75 55.67,-38.54 55.69,-38.33 55.64,-38.12 55.59,-37.92 55.47,-37.74 55.36,-37.56 55.20,-37.42 55.03,-37.29 54.83,-37.21 54.64,-37.14 54.42,-37.13 54.21,-37.12 54.01,-37.18 53.80,-37.24 53.63,-37.36 53.46,-37.49 53.33,-37.66 53.20,-37.83 53.14,-38.03 53.08,-38.23 53.08,-38.45 53.08,-38.66 53.16,-38.86 53.23,-39.06 53.36,-39.23 53.49,-39.39 53.67,-39.51 53.85,-39.63 54.05,-39.68 54.26,-39.73 54.47,-39.72 54.68,-39.70 54.88,-39.62 55.07,-39.54 55.23,-39.40 55.39,-39.26 55.50,-39.07 55.60,-38.89 55.65,-38.68 55.69,-38.47 55.66,-38.26 55.63,-38.05 55.54,-37.86 55.45,-37.67 55.30,-37.52 55.15,-37.36 54.96,-37.27 54.77,-37.17 54.77,-37.17 54.77,-37.17 52.71,-36.52 50.65,-35.86 47.86,-34.77 45.08,-33.67 39.34,-31.05 33.59,-28.43 25.31,-23.39 17.03,-18.35 11.23,-12.53 5.43,-6.72 3.29,-3.04 1.15,0.63 1.06,0.76 0.96,0.88 0.84,0.99 0.72,1.09 0.58,1.16 0.44,1.23 0.28,1.27 0.13,1.30 -0.02,1.30 -0.18,1.30 -0.33,1.26 -0.48,1.22 -0.62,1.14 -0.76,1.06 -0.88,0.96 -1.00,0.85 -1.08,0.72 -1.17,0.58 -1.22,0.43 -1.28,0.29 -1.29,0.13 -1.31,-0.02 -1.29,-0.18 -1.27,-0.33 -1.21,-0.48 -1.15,-0.63 -1.15,-0.63 L -1.15,-0.63 Z"></path></g><g transform="translate(47.053466796875 51.757568359375) rotate(0 23.921630859375 -6.809478759765625)" stroke="none"><path fill="#e03131" d="M -0.71,-1.10 Q -0.71,-1.10 2.28,-3.11 5.29,-5.12 10.65,-7.50 16.02,-9.87 22.49,-11.38 28.96,-12.89 34.30,-13.12 39.64,-13.36 43.72,-13.52 47.79,-13.68 48.00,-13.65 48.21,-13.63 48.40,-13.53 48.59,-13.44 48.74,-13.29 48.90,-13.15 48.99,-12.96 49.09,-12.77 49.12,-12.56 49.15,-12.35 49.11,-12.14 49.08,-11.93 48.97,-11.74 48.87,-11.56 48.71,-11.41 48.56,-11.27 48.36,-11.18 48.17,-11.10 47.96,-11.08 47.75,-11.06 47.54,-11.11 47.33,-11.15 47.15,-11.27 46.97,-11.38 46.84,-11.54 46.70,-11.71 46.63,-11.91 46.55,-12.10 46.54,-12.32 46.53,-12.53 46.59,-12.73 46.65,-12.94 46.78,-13.11 46.90,-13.28 47.07,-13.41 47.24,-13.54 47.44,-13.60 47.65,-13.67 47.86,-13.66 48.07,-13.66 48.27,-13.59 48.47,-13.52 48.64,-13.39 48.81,-13.26 48.92,-13.08 49.04,-12.90 49.09,-12.69 49.15,-12.49 49.13,-12.28 49.12,-12.06 49.03,-11.87 48.95,-11.67 48.81,-11.51 48.67,-11.35 48.49,-11.25 48.31,-11.14 48.10,-11.10 47.89,-11.05 47.89,-11.05 47.89,-11.05 43.84,-10.90 39.80,-10.74 34.71,-10.37 29.62,-10.01 23.40,-8.58 17.19,-7.16 12.01,-4.94 6.84,-2.72 3.77,-0.80 0.71,1.10 0.57,1.17 0.42,1.24 0.27,1.27 0.11,1.30 -0.03,1.30 -0.19,1.29 -0.34,1.25 -0.50,1.21 -0.64,1.13 -0.77,1.05 -0.89,0.94 -1.00,0.84 -1.09,0.70 -1.18,0.57 -1.23,0.42 -1.28,0.27 -1.29,0.11 -1.31,-0.03 -1.28,-0.19 -1.26,-0.35 -1.20,-0.49 -1.14,-0.64 -1.05,-0.77 -0.95,-0.89 -0.83,-1.00 -0.71,-1.10 -0.71,-1.10 L -0.71,-1.10 Z"></path></g><g transform="translate(106.44873046875 34.7584228515625) rotate(0 12.109375 13.126739501953125)" stroke="none"><path fill="#e03131" d="M 0.29,-1.28 Q 0.29,-1.28 2.42,-0.84 4.56,-0.40 7.41,0.93 10.26,2.27 13.51,5.62 16.76,8.96 18.82,12.27 20.89,15.57 22.15,18.36 23.40,21.14 24.41,23.53 25.41,25.91 25.47,26.12 25.52,26.32 25.51,26.53 25.49,26.75 25.41,26.94 25.33,27.14 25.19,27.30 25.05,27.46 24.87,27.57 24.68,27.67 24.47,27.71 24.27,27.76 24.06,27.73 23.84,27.71 23.65,27.61 23.46,27.52 23.31,27.37 23.16,27.23 23.06,27.04 22.96,26.85 22.93,26.64 22.90,26.43 22.94,26.22 22.98,26.01 23.08,25.82 23.18,25.64 23.34,25.49 23.49,25.35 23.69,25.26 23.88,25.17 24.09,25.16 24.30,25.14 24.51,25.18 24.72,25.23 24.90,25.34 25.08,25.46 25.21,25.62 25.35,25.78 25.42,25.98 25.50,26.18 25.51,26.39 25.52,26.61 25.46,26.81 25.40,27.01 25.28,27.19 25.15,27.36 24.98,27.49 24.81,27.61 24.61,27.68 24.41,27.74 24.19,27.74 23.98,27.74 23.78,27.67 23.58,27.60 23.41,27.47 23.25,27.33 23.13,27.16 23.01,26.98 23.01,26.98 23.01,26.98 21.92,24.66 20.83,22.33 19.60,19.73 18.37,17.12 16.50,14.04 14.63,10.96 11.79,7.90 8.94,4.84 6.43,3.58 3.93,2.32 1.82,1.80 -0.29,1.28 -0.43,1.22 -0.58,1.17 -0.72,1.08 -0.85,0.99 -0.95,0.88 -1.06,0.76 -1.14,0.62 -1.21,0.48 -1.25,0.33 -1.30,0.18 -1.30,0.02 -1.30,-0.13 -1.27,-0.28 -1.23,-0.44 -1.16,-0.58 -1.09,-0.72 -0.99,-0.84 -0.88,-0.96 -0.76,-1.05 -0.63,-1.15 -0.48,-1.21 -0.33,-1.26 -0.18,-1.29 -0.02,-1.31 0.13,-1.29 0.29,-1.28 0.29,-1.28 L 0.29,-1.28 Z"></path></g><g transform="translate(107.228759765625 34.46307373046875) rotate(0 14.1339111328125 21.363739013671875)" stroke="none"><path fill="#e03131" d="M 0.55,-1.19 Q 0.55,-1.19 3.69,0.09 6.83,1.37 10.50,4.87 14.17,8.37 17.69,14.69 21.21,21.02 23.54,27.04 25.88,33.06 27.42,37.26 28.96,41.47 29.01,41.68 29.05,41.89 29.03,42.10 29.01,42.31 28.92,42.50 28.84,42.70 28.69,42.85 28.55,43.01 28.36,43.11 28.17,43.21 27.96,43.24 27.75,43.28 27.54,43.25 27.33,43.22 27.14,43.12 26.96,43.02 26.81,42.87 26.66,42.71 26.57,42.52 26.48,42.33 26.46,42.12 26.43,41.91 26.47,41.70 26.52,41.49 26.63,41.31 26.73,41.13 26.90,40.99 27.06,40.85 27.25,40.77 27.45,40.69 27.66,40.67 27.87,40.66 28.08,40.72 28.28,40.77 28.46,40.89 28.64,41.01 28.77,41.18 28.90,41.34 28.97,41.54 29.04,41.74 29.04,41.96 29.04,42.17 28.97,42.37 28.91,42.57 28.78,42.74 28.65,42.91 28.48,43.03 28.30,43.16 28.10,43.21 27.89,43.27 27.68,43.26 27.47,43.25 27.27,43.18 27.07,43.10 26.91,42.96 26.75,42.83 26.64,42.64 26.53,42.46 26.53,42.46 26.53,42.46 24.59,38.38 22.66,34.30 20.44,28.48 18.21,22.66 14.99,16.71 11.77,10.76 8.58,7.54 5.38,4.32 2.41,2.75 -0.55,1.19 -0.68,1.10 -0.82,1.02 -0.93,0.90 -1.04,0.79 -1.12,0.65 -1.20,0.52 -1.24,0.37 -1.29,0.21 -1.30,0.06 -1.30,-0.09 -1.27,-0.25 -1.24,-0.40 -1.18,-0.55 -1.11,-0.69 -1.01,-0.81 -0.91,-0.94 -0.79,-1.03 -0.66,-1.13 -0.51,-1.19 -0.37,-1.25 -0.21,-1.28 -0.06,-1.31 0.09,-1.30 0.25,-1.28 0.40,-1.23 0.55,-1.19 0.55,-1.19 L 0.55,-1.19 Z"></path></g><g transform="translate(99.093994140625 26.71832275390625) rotate(0 15.0438232421875 24.169586181640625)" stroke="none"><path fill="#e03131" d="M 0.78,-1.06 Q 0.78,-1.06 4.43,1.53 8.08,4.12 12.14,8.37 16.21,12.62 20.07,19.03 23.94,25.44 26.11,30.82 28.27,36.21 29.13,39.58 29.99,42.95 30.63,45.50 31.28,48.04 31.30,48.26 31.32,48.47 31.27,48.67 31.22,48.88 31.10,49.06 30.99,49.24 30.82,49.37 30.66,49.51 30.46,49.58 30.26,49.66 30.05,49.66 29.84,49.67 29.63,49.61 29.43,49.55 29.26,49.42 29.08,49.30 28.96,49.13 28.83,48.96 28.77,48.75 28.71,48.55 28.71,48.34 28.72,48.13 28.79,47.93 28.86,47.73 28.99,47.56 29.13,47.39 29.31,47.28 29.48,47.16 29.69,47.11 29.90,47.06 30.11,47.07 30.32,47.09 30.52,47.17 30.71,47.26 30.87,47.40 31.03,47.54 31.13,47.72 31.24,47.91 31.28,48.12 31.32,48.33 31.29,48.54 31.27,48.75 31.17,48.94 31.08,49.13 30.93,49.28 30.78,49.43 30.59,49.53 30.40,49.62 30.19,49.65 29.98,49.68 29.77,49.64 29.56,49.60 29.38,49.50 29.19,49.39 29.05,49.24 28.90,49.08 28.82,48.88 28.74,48.69 28.74,48.69 28.74,48.69 28.10,46.17 27.46,43.66 26.48,40.48 25.50,37.31 23.44,32.14 21.38,26.97 17.72,20.80 14.06,14.64 10.20,10.56 6.35,6.47 2.78,3.77 -0.78,1.06 -0.89,0.95 -1.01,0.84 -1.10,0.71 -1.18,0.58 -1.24,0.42 -1.29,0.27 -1.30,0.11 -1.32,-0.03 -1.29,-0.19 -1.27,-0.35 -1.21,-0.50 -1.15,-0.64 -1.05,-0.77 -0.96,-0.90 -0.84,-1.00 -0.71,-1.11 -0.57,-1.18 -0.43,-1.25 -0.27,-1.28 -0.12,-1.31 0.03,-1.31 0.19,-1.30 0.35,-1.26 0.50,-1.22 0.64,-1.14 0.78,-1.06 0.78,-1.06 L 0.78,-1.06 Z"></path></g><g transform="translate(112.50341796875 32.33001708984375) rotate(0 9.7135009765625 29.96173095703125)" stroke="none"><path fill="#e03131" d="M 0.82,-1.02 Q 0.82,-1.02 2.69,0.40 4.56,1.82 8.19,6.70 11.82,11.58 14.46,18.33 17.10,25.09 17.90,32.48 18.70,39.87 18.46,45.17 18.21,50.46 17.83,53.23 17.44,56.00 17.23,57.98 17.01,59.96 16.96,60.17 16.90,60.37 16.78,60.55 16.66,60.72 16.49,60.85 16.32,60.98 16.12,61.05 15.92,61.12 15.71,61.12 15.50,61.12 15.29,61.05 15.09,60.98 14.92,60.85 14.75,60.72 14.63,60.55 14.52,60.37 14.46,60.17 14.40,59.96 14.41,59.75 14.42,59.54 14.50,59.34 14.58,59.14 14.72,58.98 14.86,58.82 15.04,58.71 15.22,58.60 15.43,58.55 15.64,58.51 15.85,58.53 16.06,58.55 16.25,58.64 16.44,58.73 16.60,58.88 16.75,59.03 16.85,59.21 16.95,59.40 16.99,59.61 17.02,59.82 16.99,60.03 16.95,60.24 16.85,60.43 16.75,60.61 16.60,60.76 16.44,60.91 16.25,61.00 16.06,61.09 15.85,61.11 15.64,61.13 15.43,61.09 15.22,61.04 15.04,60.93 14.86,60.82 14.72,60.66 14.58,60.50 14.50,60.30 14.42,60.10 14.41,59.89 14.40,59.68 14.40,59.68 14.40,59.68 14.62,57.71 14.83,55.74 14.97,53.03 15.12,50.32 15.37,45.25 15.62,40.19 14.91,33.19 14.21,26.19 11.75,19.78 9.30,13.37 6.01,8.71 2.73,4.06 0.95,2.54 -0.82,1.02 -0.93,0.90 -1.04,0.79 -1.12,0.65 -1.20,0.52 -1.24,0.37 -1.29,0.21 -1.30,0.06 -1.30,-0.09 -1.27,-0.25 -1.24,-0.40 -1.18,-0.55 -1.11,-0.69 -1.01,-0.81 -0.91,-0.94 -0.78,-1.03 -0.66,-1.13 -0.51,-1.19 -0.37,-1.25 -0.21,-1.28 -0.06,-1.31 0.09,-1.30 0.25,-1.28 0.40,-1.23 0.55,-1.19 0.68,-1.10 0.82,-1.02 0.82,-1.02 L 0.82,-1.02 Z"></path></g><g transform="translate(126.1728515625 56.18780517578125) rotate(0 2.7115478515625 30.24066162109375)" stroke="none"><path fill="#e03131" d="M 1.21,-0.49 Q 1.21,-0.49 2.88,3.43 4.55,7.36 5.85,13.38 7.15,19.39 7.21,26.75 7.27,34.11 5.60,41.17 3.93,48.23 2.61,51.80 1.29,55.37 0.20,58.16 -0.89,60.96 -1.00,61.14 -1.11,61.32 -1.27,61.46 -1.43,61.60 -1.63,61.68 -1.82,61.76 -2.04,61.77 -2.25,61.78 -2.45,61.73 -2.66,61.67 -2.83,61.55 -3.01,61.43 -3.14,61.27 -3.27,61.10 -3.34,60.90 -3.41,60.70 -3.41,60.48 -3.41,60.27 -3.34,60.07 -3.28,59.87 -3.15,59.70 -3.02,59.53 -2.84,59.41 -2.67,59.29 -2.47,59.23 -2.26,59.17 -2.05,59.18 -1.84,59.19 -1.64,59.27 -1.44,59.35 -1.28,59.48 -1.12,59.62 -1.01,59.80 -0.89,59.98 -0.85,60.19 -0.80,60.40 -0.82,60.61 -0.85,60.82 -0.93,61.01 -1.02,61.21 -1.17,61.36 -1.31,61.52 -1.50,61.62 -1.69,61.72 -1.90,61.75 -2.11,61.79 -2.32,61.76 -2.53,61.72 -2.71,61.62 -2.90,61.53 -3.05,61.37 -3.20,61.22 -3.29,61.03 -3.38,60.83 -3.40,60.62 -3.42,60.41 -3.38,60.20 -3.33,60.00 -3.33,60.00 -3.33,60.00 -2.26,57.25 -1.18,54.51 -0.06,51.03 1.06,47.55 2.66,40.83 4.26,34.10 4.25,27.05 4.23,20.00 3.04,14.22 1.84,8.45 0.31,4.47 -1.21,0.49 -1.25,0.34 -1.29,0.18 -1.30,0.02 -1.30,-0.12 -1.27,-0.28 -1.23,-0.43 -1.16,-0.57 -1.09,-0.72 -0.99,-0.84 -0.89,-0.96 -0.76,-1.05 -0.63,-1.14 -0.48,-1.20 -0.34,-1.26 -0.18,-1.29 -0.02,-1.31 0.12,-1.29 0.28,-1.28 0.43,-1.22 0.58,-1.17 0.71,-1.08 0.84,-1.00 0.95,-0.88 1.06,-0.77 1.14,-0.63 1.21,-0.49 1.21,-0.49 L 1.21,-0.49 Z"></path></g><g transform="translate(131.70751953125 76.304443359375) rotate(0 -8.896240234375 22.2825927734375)" stroke="none"><path fill="#e03131" d="M 1.30,-0.12 Q 1.30,-0.12 1.62,2.10 1.94,4.33 1.62,8.85 1.31,13.38 -0.55,19.67 -2.43,25.96 -4.93,30.71 -7.42,35.47 -10.34,38.35 -13.26,41.24 -15.43,43.37 -17.61,45.50 -17.79,45.62 -17.96,45.74 -18.16,45.80 -18.37,45.86 -18.58,45.86 -18.79,45.85 -18.99,45.77 -19.19,45.70 -19.35,45.56 -19.52,45.43 -19.63,45.25 -19.74,45.07 -19.79,44.86 -19.84,44.65 -19.82,44.44 -19.80,44.23 -19.72,44.04 -19.63,43.84 -19.49,43.68 -19.34,43.53 -19.16,43.43 -18.97,43.32 -18.76,43.28 -18.55,43.25 -18.34,43.28 -18.13,43.31 -17.94,43.41 -17.75,43.50 -17.60,43.65 -17.46,43.81 -17.36,44.00 -17.27,44.19 -17.24,44.40 -17.22,44.61 -17.26,44.82 -17.30,45.03 -17.41,45.21 -17.52,45.39 -17.68,45.53 -17.84,45.67 -18.03,45.76 -18.23,45.84 -18.44,45.85 -18.65,45.87 -18.86,45.81 -19.06,45.76 -19.24,45.64 -19.42,45.53 -19.55,45.36 -19.68,45.19 -19.75,44.99 -19.82,44.79 -19.83,44.58 -19.83,44.37 -19.77,44.17 -19.70,43.96 -19.57,43.79 -19.45,43.62 -19.45,43.62 -19.45,43.62 -17.30,41.52 -15.15,39.41 -12.66,36.69 -10.17,33.98 -7.79,29.51 -5.42,25.04 -3.61,19.09 -1.80,13.13 -1.44,8.87 -1.08,4.61 -1.19,2.36 -1.30,0.12 -1.30,-0.03 -1.29,-0.19 -1.25,-0.34 -1.21,-0.49 -1.13,-0.63 -1.06,-0.77 -0.95,-0.88 -0.84,-1.00 -0.71,-1.09 -0.58,-1.17 -0.43,-1.23 -0.28,-1.28 -0.12,-1.29 0.03,-1.31 0.19,-1.28 0.34,-1.26 0.49,-1.20 0.63,-1.14 0.76,-1.05 0.89,-0.96 0.99,-0.83 1.09,-0.71 1.16,-0.57 1.23,-0.43 1.27,-0.27 1.30,-0.12 1.30,-0.12 L 1.30,-0.12 Z"></path></g><g transform="translate(107.637451171875 128.68011474609375) rotate(0 11.3848876953125 -11.5023193359375)" stroke="none"><path fill="#e03131" d="M -0.04,-1.31 Q -0.04,-1.31 1.83,-1.50 3.72,-1.68 6.92,-5.02 10.12,-8.36 13.23,-12.61 16.35,-16.86 17.92,-19.14 19.49,-21.42 20.71,-23.47 21.93,-25.51 22.07,-25.67 22.21,-25.84 22.39,-25.95 22.57,-26.06 22.78,-26.10 22.99,-26.15 23.20,-26.13 23.41,-26.10 23.60,-26.02 23.80,-25.93 23.95,-25.78 24.11,-25.63 24.21,-25.45 24.31,-25.26 24.34,-25.05 24.38,-24.84 24.34,-24.63 24.31,-24.42 24.21,-24.23 24.11,-24.05 23.96,-23.90 23.80,-23.75 23.61,-23.66 23.42,-23.57 23.21,-23.55 22.99,-23.53 22.79,-23.57 22.58,-23.62 22.40,-23.73 22.21,-23.83 22.08,-24.00 21.94,-24.16 21.86,-24.35 21.78,-24.55 21.77,-24.76 21.76,-24.98 21.81,-25.18 21.87,-25.39 21.99,-25.56 22.11,-25.74 22.28,-25.87 22.44,-26.00 22.65,-26.06 22.85,-26.13 23.06,-26.13 23.27,-26.13 23.47,-26.07 23.67,-26.00 23.84,-25.87 24.01,-25.74 24.13,-25.57 24.25,-25.39 24.31,-25.19 24.37,-24.98 24.36,-24.77 24.35,-24.56 24.27,-24.36 24.19,-24.16 24.19,-24.16 24.19,-24.16 22.94,-22.08 21.70,-20.00 20.23,-17.58 18.76,-15.16 15.63,-10.54 12.50,-5.91 8.44,-2.26 4.39,1.38 2.22,1.35 0.04,1.31 -0.10,1.30 -0.26,1.29 -0.41,1.24 -0.56,1.18 -0.70,1.10 -0.83,1.01 -0.94,0.90 -1.05,0.78 -1.13,0.65 -1.21,0.51 -1.25,0.36 -1.30,0.20 -1.30,0.04 -1.31,-0.11 -1.28,-0.26 -1.24,-0.42 -1.18,-0.56 -1.11,-0.70 -1.01,-0.83 -0.91,-0.95 -0.78,-1.04 -0.65,-1.14 -0.50,-1.20 -0.36,-1.26 -0.20,-1.29 -0.04,-1.31 -0.04,-1.31 L -0.04,-1.31 Z"></path></g><g transform="translate(99.242431640625 139.31268310546875) rotate(0 11.55224609375 -10.222412109375)" stroke="none"><path fill="#e03131" d="M -0.32,-1.27 Q -0.32,-1.27 1.65,-1.83 3.62,-2.38 6.95,-4.95 10.27,-7.51 13.47,-11.08 16.67,-14.66 19.38,-17.96 22.08,-21.27 22.24,-21.41 22.40,-21.55 22.60,-21.63 22.79,-21.72 23.01,-21.73 23.22,-21.75 23.42,-21.69 23.63,-21.64 23.81,-21.53 23.98,-21.41 24.12,-21.24 24.25,-21.08 24.32,-20.88 24.39,-20.68 24.40,-20.46 24.40,-20.25 24.34,-20.05 24.27,-19.85 24.15,-19.67 24.02,-19.50 23.85,-19.38 23.67,-19.26 23.47,-19.20 23.27,-19.14 23.05,-19.14 22.84,-19.15 22.64,-19.23 22.44,-19.30 22.28,-19.44 22.11,-19.57 22.00,-19.75 21.89,-19.93 21.84,-20.14 21.79,-20.34 21.81,-20.56 21.83,-20.77 21.91,-20.96 22.00,-21.16 22.14,-21.31 22.29,-21.47 22.47,-21.57 22.66,-21.68 22.87,-21.71 23.08,-21.75 23.29,-21.72 23.50,-21.69 23.69,-21.60 23.88,-21.50 24.02,-21.35 24.17,-21.20 24.27,-21.01 24.36,-20.81 24.39,-20.60 24.41,-20.39 24.37,-20.18 24.33,-19.98 24.22,-19.79 24.12,-19.61 24.12,-19.61 24.12,-19.61 21.39,-16.27 18.66,-12.93 15.36,-9.03 12.06,-5.12 8.23,-2.38 4.40,0.35 2.36,0.81 0.32,1.27 0.16,1.29 0.00,1.31 -0.14,1.29 -0.30,1.27 -0.45,1.22 -0.60,1.16 -0.73,1.07 -0.86,0.98 -0.96,0.87 -1.07,0.75 -1.15,0.61 -1.22,0.47 -1.26,0.32 -1.30,0.16 -1.30,0.00 -1.30,-0.14 -1.26,-0.30 -1.23,-0.45 -1.15,-0.59 -1.08,-0.73 -0.98,-0.85 -0.87,-0.97 -0.74,-1.06 -0.61,-1.15 -0.47,-1.21 -0.32,-1.27 -0.32,-1.27 L -0.32,-1.27 Z"></path></g><g transform="translate(49.393798828125 122.3792724609375) rotate(0 18.9996337890625 6.530517578125)" stroke="none"><path fill="#e03131" d="M 0.67,-1.14 Q 0.67,-1.14 4.80,1.00 8.93,3.14 13.86,5.51 18.79,7.87 23.57,8.89 28.35,9.91 31.16,10.05 33.98,10.19 35.56,9.85 37.14,9.52 37.34,9.47 37.55,9.42 37.76,9.43 37.97,9.45 38.17,9.53 38.37,9.62 38.52,9.76 38.68,9.90 38.79,10.09 38.89,10.27 38.93,10.48 38.97,10.69 38.94,10.90 38.92,11.11 38.82,11.30 38.73,11.49 38.58,11.64 38.43,11.79 38.24,11.89 38.05,11.98 37.84,12.01 37.63,12.04 37.42,12.00 37.21,11.96 37.02,11.86 36.84,11.75 36.70,11.59 36.55,11.44 36.47,11.24 36.39,11.05 36.37,10.83 36.35,10.62 36.40,10.42 36.45,10.21 36.57,10.03 36.68,9.85 36.85,9.72 37.01,9.58 37.21,9.51 37.41,9.44 37.62,9.43 37.84,9.42 38.04,9.49 38.24,9.55 38.41,9.67 38.59,9.80 38.71,9.97 38.84,10.14 38.90,10.34 38.96,10.55 38.96,10.76 38.95,10.97 38.88,11.17 38.80,11.37 38.67,11.54 38.54,11.70 38.36,11.82 38.18,11.93 38.18,11.93 38.18,11.93 36.03,12.79 33.87,13.66 30.73,13.55 27.58,13.45 22.41,12.29 17.24,11.14 12.18,8.69 7.12,6.24 3.22,3.69 -0.67,1.14 -0.79,1.04 -0.92,0.95 -1.02,0.82 -1.12,0.70 -1.19,0.55 -1.26,0.41 -1.29,0.25 -1.32,0.09 -1.31,-0.06 -1.30,-0.22 -1.26,-0.37 -1.21,-0.52 -1.13,-0.66 -1.05,-0.80 -0.94,-0.91 -0.83,-1.03 -0.69,-1.11 -0.56,-1.20 -0.41,-1.25 -0.25,-1.30 -0.09,-1.31 0.06,-1.32 0.21,-1.30 0.37,-1.27 0.52,-1.21 0.67,-1.14 0.67,-1.14 L 0.67,-1.14 Z"></path></g><g transform="translate(60.165771484375 129.40203857421875) rotate(0 15.71240234375 3.921600341796875)" stroke="none"><path fill="#e03131" d="M 0.59,-1.17 Q 0.59,-1.17 3.67,0.28 6.75,1.75 10.50,3.07 14.26,4.39 18.26,4.44 22.27,4.50 24.60,3.82 26.94,3.14 28.85,2.07 30.76,0.99 30.96,0.92 31.16,0.84 31.37,0.83 31.58,0.82 31.78,0.88 31.99,0.94 32.16,1.07 32.34,1.19 32.46,1.36 32.59,1.53 32.65,1.73 32.72,1.93 32.72,2.15 32.71,2.36 32.64,2.56 32.57,2.76 32.44,2.93 32.31,3.09 32.13,3.21 31.95,3.33 31.75,3.38 31.54,3.44 31.33,3.42 31.12,3.41 30.92,3.33 30.73,3.24 30.57,3.10 30.41,2.96 30.30,2.78 30.19,2.60 30.15,2.39 30.11,2.18 30.13,1.97 30.16,1.76 30.25,1.57 30.34,1.38 30.49,1.22 30.64,1.07 30.83,0.97 31.02,0.88 31.23,0.85 31.44,0.81 31.65,0.85 31.86,0.89 32.04,0.99 32.23,1.09 32.37,1.25 32.52,1.41 32.60,1.60 32.69,1.79 32.71,2.01 32.73,2.22 32.68,2.42 32.63,2.63 32.52,2.81 32.41,2.99 32.24,3.13 32.08,3.26 32.08,3.26 32.08,3.26 29.92,4.56 27.77,5.85 25.00,6.69 22.24,7.53 17.77,7.38 13.29,7.23 9.35,5.81 5.42,4.39 2.41,2.78 -0.59,1.17 -0.72,1.09 -0.86,1.00 -0.96,0.88 -1.07,0.76 -1.15,0.62 -1.22,0.48 -1.26,0.33 -1.30,0.17 -1.31,0.02 -1.31,-0.13 -1.27,-0.29 -1.24,-0.44 -1.17,-0.59 -1.09,-0.73 -0.99,-0.85 -0.89,-0.97 -0.76,-1.06 -0.63,-1.16 -0.48,-1.21 -0.33,-1.27 -0.17,-1.29 -0.02,-1.32 0.13,-1.30 0.29,-1.28 0.44,-1.23 0.59,-1.17 0.59,-1.17 L 0.59,-1.17 Z"></path></g><g transform="translate(58.271240234375 134.06201171875) rotate(0 18.906982421875 4.709197998046875)" stroke="none"><path fill="#e03131" d="M 0.68,-1.12 Q 0.68,-1.12 2.87,0.09 5.06,1.30 9.69,3.18 14.32,5.06 19.49,5.81 24.66,6.57 28.16,6.31 31.65,6.05 34.59,5.61 37.53,5.18 37.74,5.17 37.96,5.15 38.16,5.21 38.37,5.27 38.54,5.39 38.72,5.51 38.84,5.68 38.97,5.85 39.04,6.05 39.11,6.25 39.10,6.47 39.10,6.68 39.04,6.88 38.97,7.08 38.84,7.25 38.71,7.42 38.53,7.54 38.35,7.65 38.15,7.71 37.94,7.77 37.73,7.75 37.52,7.74 37.32,7.66 37.13,7.58 36.97,7.44 36.80,7.31 36.70,7.12 36.59,6.94 36.54,6.73 36.50,6.52 36.52,6.31 36.55,6.10 36.64,5.91 36.73,5.72 36.87,5.56 37.02,5.41 37.21,5.31 37.40,5.21 37.61,5.18 37.82,5.15 38.02,5.18 38.23,5.22 38.42,5.32 38.61,5.42 38.75,5.57 38.90,5.73 38.99,5.92 39.08,6.11 39.10,6.33 39.12,6.54 39.07,6.74 39.03,6.95 38.92,7.13 38.81,7.31 38.64,7.45 38.48,7.59 38.28,7.67 38.09,7.74 38.09,7.74 38.09,7.74 35.00,8.32 31.91,8.90 28.06,9.31 24.21,9.72 18.67,8.85 13.14,7.98 8.31,5.94 3.48,3.90 1.39,2.51 -0.68,1.12 -0.80,1.02 -0.93,0.92 -1.02,0.80 -1.12,0.67 -1.19,0.53 -1.25,0.38 -1.28,0.23 -1.31,0.07 -1.30,-0.08 -1.29,-0.24 -1.24,-0.39 -1.19,-0.54 -1.11,-0.67 -1.03,-0.81 -0.91,-0.92 -0.80,-1.03 -0.67,-1.11 -0.53,-1.19 -0.38,-1.24 -0.23,-1.29 -0.07,-1.30 0.08,-1.31 0.23,-1.28 0.39,-1.25 0.53,-1.18 0.68,-1.12 0.68,-1.12 L 0.68,-1.12 Z"></path></g><g transform="translate(52.068115234375 145.5806884765625) rotate(0 24.2744140625 1.755706787109375)" stroke="none"><path fill="#e03131" d="M 0.44,-1.23 Q 0.44,-1.23 4.33,0.10 8.22,1.45 13.96,2.42 19.71,3.40 25.61,2.59 31.50,1.79 35.90,0.37 40.30,-1.03 42.44,-1.81 44.59,-2.58 46.30,-3.33 48.02,-4.09 48.22,-4.14 48.43,-4.19 48.64,-4.18 48.85,-4.16 49.05,-4.08 49.24,-3.99 49.40,-3.85 49.56,-3.71 49.67,-3.53 49.77,-3.34 49.81,-3.14 49.86,-2.93 49.83,-2.72 49.80,-2.51 49.71,-2.31 49.62,-2.12 49.47,-1.97 49.32,-1.82 49.13,-1.73 48.94,-1.63 48.73,-1.60 48.52,-1.57 48.31,-1.61 48.10,-1.65 47.91,-1.75 47.73,-1.85 47.59,-2.01 47.44,-2.17 47.36,-2.36 47.27,-2.56 47.25,-2.77 47.23,-2.98 47.28,-3.19 47.33,-3.39 47.45,-3.57 47.56,-3.75 47.73,-3.89 47.89,-4.02 48.09,-4.10 48.29,-4.17 48.50,-4.18 48.71,-4.19 48.92,-4.12 49.12,-4.06 49.29,-3.94 49.47,-3.82 49.59,-3.65 49.72,-3.47 49.78,-3.27 49.84,-3.07 49.84,-2.86 49.84,-2.64 49.76,-2.44 49.69,-2.24 49.56,-2.08 49.43,-1.91 49.25,-1.80 49.07,-1.68 49.07,-1.68 49.07,-1.68 47.30,-0.91 45.53,-0.13 43.36,0.75 41.19,1.65 36.55,3.22 31.90,4.80 25.57,5.57 19.23,6.34 13.23,5.25 7.24,4.17 3.39,2.70 -0.44,1.23 -0.58,1.16 -0.73,1.09 -0.85,0.98 -0.97,0.88 -1.06,0.75 -1.15,0.62 -1.21,0.47 -1.27,0.33 -1.29,0.17 -1.31,0.01 -1.29,-0.13 -1.27,-0.29 -1.22,-0.44 -1.17,-0.59 -1.08,-0.72 -0.99,-0.85 -0.87,-0.96 -0.76,-1.07 -0.62,-1.14 -0.48,-1.22 -0.32,-1.26 -0.17,-1.30 -0.01,-1.30 0.14,-1.30 0.29,-1.26 0.44,-1.23 0.44,-1.23 L 0.44,-1.23 Z"></path></g><g transform="translate(60.054443359375 141.31451416015625) rotate(0 19.2412109375 -4.88970947265625)" stroke="none"><path fill="#e03131" d="M -0.03,-1.31 Q -0.03,-1.31 3.27,-1.72 6.58,-2.12 11.10,-2.89 15.62,-3.66 19.97,-4.71 24.32,-5.77 28.27,-7.18 32.23,-8.58 34.98,-10.00 37.74,-11.42 37.93,-11.52 38.11,-11.62 38.32,-11.65 38.53,-11.68 38.74,-11.64 38.95,-11.60 39.14,-11.50 39.33,-11.40 39.47,-11.24 39.61,-11.09 39.70,-10.89 39.79,-10.70 39.80,-10.49 39.82,-10.27 39.78,-10.07 39.73,-9.86 39.61,-9.68 39.50,-9.50 39.34,-9.36 39.17,-9.23 38.98,-9.15 38.78,-9.08 38.56,-9.07 38.35,-9.06 38.15,-9.12 37.94,-9.18 37.77,-9.30 37.60,-9.43 37.47,-9.60 37.34,-9.77 37.28,-9.97 37.22,-10.17 37.22,-10.39 37.22,-10.60 37.29,-10.80 37.36,-11.00 37.50,-11.17 37.63,-11.33 37.80,-11.45 37.98,-11.57 38.19,-11.62 38.39,-11.67 38.60,-11.66 38.82,-11.64 39.01,-11.56 39.21,-11.48 39.37,-11.34 39.53,-11.20 39.64,-11.02 39.74,-10.83 39.78,-10.62 39.83,-10.42 39.80,-10.20 39.77,-9.99 39.68,-9.80 39.59,-9.61 39.44,-9.46 39.29,-9.31 39.29,-9.31 39.29,-9.31 36.48,-6.97 33.67,-4.63 29.49,-3.13 25.32,-1.63 20.78,-0.55 16.24,0.52 11.47,1.13 6.69,1.74 3.36,1.53 0.03,1.31 -0.12,1.30 -0.27,1.28 -0.42,1.23 -0.57,1.18 -0.71,1.09 -0.84,1.01 -0.95,0.89 -1.06,0.78 -1.14,0.64 -1.22,0.50 -1.26,0.34 -1.30,0.19 -1.30,0.03 -1.31,-0.12 -1.28,-0.27 -1.24,-0.43 -1.17,-0.57 -1.10,-0.71 -1.00,-0.84 -0.90,-0.96 -0.77,-1.05 -0.64,-1.15 -0.49,-1.21 -0.35,-1.27 -0.19,-1.29 -0.03,-1.31 -0.03,-1.31 L -0.03,-1.31 Z"></path></g><g transform="translate(56.971435546875 136.35919189453125) rotate(0 22.0269775390625 0.295318603515625)" stroke="none"><path fill="#e03131" d="M 0.92,-0.93 Q 0.92,-0.93 2.25,0.19 3.58,1.31 7.17,2.08 10.76,2.84 16.36,2.82 21.96,2.80 26.87,1.41 31.79,0.02 35.36,-1.62 38.92,-3.28 41.81,-4.91 44.70,-6.55 44.90,-6.63 45.10,-6.70 45.31,-6.71 45.53,-6.71 45.73,-6.65 45.93,-6.59 46.10,-6.46 46.28,-6.34 46.40,-6.17 46.53,-5.99 46.59,-5.79 46.65,-5.59 46.64,-5.38 46.64,-5.16 46.57,-4.96 46.49,-4.76 46.36,-4.60 46.23,-4.43 46.05,-4.32 45.87,-4.20 45.66,-4.15 45.46,-4.10 45.25,-4.12 45.03,-4.14 44.84,-4.22 44.64,-4.30 44.48,-4.44 44.33,-4.59 44.22,-4.77 44.12,-4.96 44.08,-5.16 44.04,-5.37 44.06,-5.58 44.09,-5.79 44.19,-5.98 44.28,-6.18 44.43,-6.33 44.58,-6.48 44.77,-6.57 44.96,-6.66 45.17,-6.69 45.38,-6.72 45.59,-6.68 45.80,-6.64 45.99,-6.54 46.17,-6.43 46.31,-6.28 46.46,-6.12 46.54,-5.92 46.62,-5.73 46.64,-5.52 46.66,-5.30 46.61,-5.10 46.56,-4.89 46.44,-4.71 46.33,-4.53 46.16,-4.40 46.00,-4.27 46.00,-4.27 46.00,-4.27 43.06,-2.61 40.13,-0.94 36.42,1.15 32.72,3.25 27.35,4.79 21.98,6.33 15.96,6.27 9.93,6.21 5.71,4.97 1.49,3.73 0.28,2.33 -0.92,0.93 -1.02,0.80 -1.12,0.68 -1.18,0.53 -1.25,0.39 -1.28,0.23 -1.31,0.08 -1.30,-0.07 -1.29,-0.23 -1.24,-0.38 -1.19,-0.53 -1.11,-0.67 -1.03,-0.80 -0.92,-0.91 -0.81,-1.03 -0.67,-1.11 -0.54,-1.19 -0.39,-1.24 -0.23,-1.29 -0.08,-1.30 0.07,-1.31 0.23,-1.28 0.38,-1.25 0.53,-1.19 0.67,-1.12 0.80,-1.02 0.92,-0.93 0.92,-0.93 L 0.92,-0.93 Z"></path></g><g transform="translate(96.456787109375 139.77215576171875) rotate(0 8.0791015625 -9.66455078125)" stroke="none"><path fill="#e03131" d="M -0.94,-0.91 Q -0.94,-0.91 0.94,-2.94 2.83,-4.97 5.57,-8.28 8.32,-11.59 10.09,-13.78 11.86,-15.97 13.49,-18.05 15.11,-20.12 15.26,-20.27 15.42,-20.41 15.61,-20.50 15.80,-20.59 16.01,-20.61 16.22,-20.64 16.43,-20.59 16.64,-20.54 16.82,-20.43 17.00,-20.33 17.14,-20.16 17.28,-20.00 17.36,-19.80 17.44,-19.61 17.45,-19.39 17.46,-19.18 17.40,-18.98 17.35,-18.77 17.23,-18.60 17.11,-18.42 16.94,-18.29 16.77,-18.16 16.57,-18.10 16.37,-18.03 16.15,-18.03 15.94,-18.03 15.74,-18.10 15.54,-18.16 15.37,-18.29 15.20,-18.42 15.08,-18.60 14.96,-18.77 14.90,-18.98 14.85,-19.18 14.86,-19.39 14.87,-19.61 14.95,-19.80 15.03,-20.00 15.17,-20.16 15.30,-20.33 15.49,-20.43 15.67,-20.54 15.87,-20.59 16.08,-20.64 16.29,-20.61 16.50,-20.59 16.70,-20.50 16.89,-20.41 17.04,-20.26 17.20,-20.12 17.30,-19.93 17.40,-19.74 17.43,-19.53 17.47,-19.32 17.43,-19.11 17.40,-18.90 17.30,-18.72 17.20,-18.53 17.20,-18.53 17.20,-18.53 15.62,-16.39 14.04,-14.25 12.29,-11.99 10.53,-9.73 7.69,-6.38 4.85,-3.02 2.90,-1.05 0.94,0.91 0.82,1.01 0.70,1.11 0.55,1.17 0.41,1.24 0.26,1.27 0.10,1.30 -0.05,1.30 -0.21,1.29 -0.36,1.25 -0.51,1.20 -0.65,1.12 -0.78,1.04 -0.90,0.93 -1.01,0.83 -1.10,0.69 -1.18,0.56 -1.23,0.41 -1.28,0.26 -1.29,0.10 -1.31,-0.05 -1.28,-0.20 -1.26,-0.36 -1.19,-0.51 -1.13,-0.65 -1.04,-0.78 -0.94,-0.91 -0.94,-0.91 L -0.94,-0.91 Z"></path></g></svg>